<svg id="Layer_1" data-name="Layer 1" xmlns="http://www.w3.org/2000/svg" viewBox="0 0 375.19 1052.46"><defs><linearGradient id="linear-gradient" x1="-2539.02" y1="648.71" x2="-2539.02" y2="649.71" gradientTransform="matrix(1485.76 0 0 -901.54 3772022.09 585735.26)" gradientUnits="userSpaceOnUse"><stop offset=".21" stop-color="#fffac1"/><stop offset=".42" stop-color="#d9e8bc"/><stop offset="1" stop-color="#80cbc9"/></linearGradient><linearGradient id="linear-gradient-2" x1="-2538.15" y1="647.87" x2="-2538.15" y2="648.86" gradientTransform="matrix(943.32 0 0 -283.64 2394133.43 184264.15)" gradientUnits="userSpaceOnUse"><stop offset="0" stop-color="#fff"/><stop offset=".4" stop-color="#f6f8ed"/><stop offset="1" stop-color="#e7edcb"/></linearGradient><linearGradient id="linear-gradient-3" x1="-2537.05" y1="648.43" x2="-2536.59" y2="649.61" gradientTransform="matrix(626.17 0 0 -667.4 1588614.5 433736.93)" gradientUnits="userSpaceOnUse"><stop offset="0" stop-color="#e6ebc2"/><stop offset=".17" stop-color="#e0e8c0"/><stop offset=".4" stop-color="#d0dfbb"/><stop offset=".65" stop-color="#b6d1b4"/><stop offset=".91" stop-color="#92bea9"/><stop offset="1" stop-color="#85b7a6"/></linearGradient><clipPath id="clip-path"><path fill="none" d="M0 0h375v1051H0z"/></clipPath><style>.cls-3{fill:#fff}.cls-13{fill:#7c872c}.cls-14{fill:#e3db00}.cls-15{fill:#d6b596}.cls-16{fill:#f1d4a4}.cls-17{fill:#b49881}.cls-18{fill:#fff0c8}</style></defs><g clip-path="url(#clip-path)"><g id="_9_1" data-name="9 1"><path class="cls-3" d="M0 0h375v1051H0z"/><g id="Group_1041" data-name="Group 1041"><g id="Layer_1-2" data-name="Layer 1"><path id="Rectangle_193" data-name="Rectangle 193" fill="url(#linear-gradient)" d="M-1107.17 0H378.59v901.54h-1485.76z"/></g><g id="Layer_11" data-name="Layer 11"><g id="Group_1028" data-name="Group 1028"><path id="Path_1775" data-name="Path 1775" d="M268.12 426.06c23.19-27.6-42.09-26.82-51.29-28.8 2.39-3.1 3.22-6.89 4.62-9.17a105.05 105.05 0 00-23.36-5.3c1-1.58 3.13-3.45 4.1-4.84-14-16.69-47.21-20-64-6.95 7.05-19.37-15.85-38.8-32.87-31.72 40-19 9.58-47.42-18.21-46.8 7-38.76-30.82-55.48-53.44-28.9-8.38-71-153.12-53.86-156.42 19.51-7.15-21.45-40.42-19.83-49.43.19-3.13-35.82-53.31-15.35-52.77 18.53-9.76-49.74-49.05-78.12-94.89-66.66-49.25 12.31-72 68-66.71 120-16.93-3.62-33.62 10.38-27.64 30.43-9-3.42-22.41-8.41-28.27 3.24-4.31 8.57.21 18.21 6.6 22.31 0 0 .07 1 0 .92s-.68.32-.75.19c-14-.68-63.59-7-62.17 15.19-14.36-3.82-35.66-2.41-45.83 10.74 10.29 18.19-8 14.8-19.54 16.21-18.22 2.23-34.2 4.34-52.68 10.26 43.57 3.38 85.87-8.09 128.45-5.16-6.18 2.45-11.5 6.35-17.67 8.83 36.87-1.84 75.9-14.22 112.71-8.75-20.57 19.15 4.82 19.42 16.71 20.11 19.75 1.16 36.64 8.65 52.94 12.89 25 6.51 58.16 4.47 83.86 1.53 32.66-3.75 65.48 9 101.07 7.8 29.5-1 57.61-11.85 86-17 33.29-6.09 67.58.94 102-3.09 21.26-2.48 42.43-1.06 63.48-3.81 26.48-3.45 34.84-19.07 60.86-20.21 19.8-.88 39.43 0 59.16-.5 5.16-.12 13 2.78 18 .77 5.23-2.13 4.41-11.59 5.64-12.05 17.38-6.49 49.56-3.82 70-.77 2.51-26.81-43.49-17.8-58.26-19.17z" fill="url(#linear-gradient-2)"/><path id="Path_1776" data-name="Path 1776" class="cls-3" d="M87.11 292.26c7-38.75-30.83-55.48-53.45-28.9-8.37-71-153.11-53.85-156.41 19.52-7.15-21.45-40.42-19.83-49.43.19-3.13-35.82-53.31-15.35-52.77 18.53-9.76-49.74-49.05-78.12-94.89-66.66-49.25 12.32-72 68.05-66.71 120-14.46-3.09-28.72 6.67-28.87 22.07a20.9 20.9 0 001.43 8.46c.13-25.71 27.26-23.07 43-22.62-11.55-37 9.2-73.24 37-98.43 17.95-16.25 46.11-22.19 67.89-13 13.82 5.85 14.33 11.66 24 23 11.46 13.47 17.26 31.65 22 47.36-.26-15 1.52-29.54 13.92-39.6 13.5-10.95 24.63-2.47 35.73 5.94 4.36-10.6 21.39-13.66 31.17-10.91C-126 280.9-117 292.36-107.5 301c1.38-19.53 15.65-47.84 32.14-61.58 9-7.49 24-9.15 41.93-10 38.43-1.8 57.91 18 71.66 56.62 1.79-13.86 19.2-25.7 31.18-22.67 13.47 3.4 15 19 14.17 33.63q2.6-2.44 5.24-4.78c-.57.04-1.14.03-1.71.04zm-529.57 96.34c-4.15 8.26-.11 17.51 5.91 21.84-.65-3.83-.52-14.32 2.34-18.24 6-8.24 16.37-7.71 16.41-7.2l-.11-1c-8.66-3.08-19.45-5.54-24.55 4.6z"/><path id="Path_1777" data-name="Path 1777" class="cls-3" d="M298.44 436.65c-5.46-3.21-10.62-4.48-16.48-6.72a81.22 81.22 0 01-8.24-3.73 54.93 54.93 0 01-5.74-.14c.61-.72 1.13-1.41 1.62-2.1-8.91-5.06-17.22-11-26.61-15.41-16.72-7.77-37.62-9.24-55.79-10.24-22.83-1.25-46.38-1.48-69.18.43-23.19 1.93-45.65 8.18-68.55 11.95-17.24 2.84-40.46 8.67-55.63-3-4.93-3.79-10.06-9.56-16.91-8.89-.35 0-.7.09-1.05.14l-1.05.23-1.53.28c-6.45 1.62-12.55 5.58-18.11 8.84-3 1.77-6.14 3.54-9.3 5.25-12.36 9.07-25.45 17-39.82 22.7-18.7 7.4-38.17 9.92-58.19 9.57-17.54-.31-36.62-4.13-46.46-20.36a31.31 31.31 0 01-1.52-2.86c-23.46 10.74-46.62 24.41-72.58 21.41-9.52-1.1-18.63-3.78-25.95-10.28-3.86-3.44-7.83-8.23-9.5-13.49a54.11 54.11 0 00-12.2.18c-6.21.83-11.67 3.44-17.16 5.85-.27.32-.55.63-.81.95-2.48 3.15-5.88 4.43-9.82 4.67-3.77.24-8.21.63-11.8-.86-2.83-1.18-6.88-4.11-10-4-7.59.35-12.36 5.55-18.09 9.88-14.55 11-32.57 8.9-49.44 5.71-9.62-1.82-18.8-3.22-28.6-2.05-8.48 1-18.1 2.6-26.51.19-7.44-2.11-13.04-5.75-21.09-4.75-5.18.68-11.91 2.29-13.9 7.48 1.38 2.74 3 5.4 3.64 8.4-18.43 5-38.41 4.24-58.12 4.79a217.34 217.34 0 00-35 7.92c43.58 3.38 85.88-8.09 128.46-5.16-6.19 2.45-11.5 6.34-17.67 8.83 36.87-1.84 75.89-14.22 112.71-8.76-20.57 19.16 4.82 19.43 16.7 20.12 19.75 1.15 36.64 8.65 52.95 12.89 25 6.51 58.16 4.47 83.86 1.52 32.66-3.74 65.48 9 101.07 7.8 29.5-1 57.6-11.85 85.95-17 33.29-6.08 67.59 1 102-3.08 21.26-2.48 42.43-1.07 63.48-3.81 26.49-3.45 34.84-19.07 60.87-20.22 19.79-.87 39.42 0 59.15-.49 5.17-.13 13 2.77 18 .77 5.22-2.13 4.4-11.59 5.63-12.05 12.87-4.8 33.87-4.58 52.25-2.95-3.25-2.17-6.54-4.35-9.94-6.35z"/><path id="Path_1779" data-name="Path 1779" class="cls-3" d="M36 251.45c-5.14-7.9-16.8-8.46-24.81-9.44 7.81 4.56 13.24 15.64 13 29.39-.28 12.67-5.36 33.81-15.25 31.48 8.94 9 28.62 5.86 32.82-13.66 2.06-9.63-1.65-31.53-5.76-37.77z"/></g></g><g id="Layer_10" data-name="Layer 10"><g id="Group_1031" data-name="Group 1031"><path id="Path_1787" data-name="Path 1787" d="M306.33 250.16l.17-.16c-.32.22-.38.24-.17.16zm.17-.16a23.12 23.12 0 003.24-2.85c1-1.25-1.34 1-3.24 2.85zm49.6-35.87c-23.12 2.35-33.11 16.15-46.36 33v2.36a11.38 11.38 0 00-3.41.65c-1.39 1.33-2.48 2.33-1.72 1.37l-1.82-1.66c8.77-3.94-4.89-19.4-15.71-23.64-10.6-4.15-27.82-1.58-39.92-1.59-30.51 0-55.44 2-72.43 27-28.37-32.27-66.64 18.1-76 40.17-15.18 35.69-22.06 73.3-28.21 111.43-20.46-30.9-24.75-88.33-83-77.66-42.2 7.73-34.81 65.88-37.48 98.21-6.93-31.47-59.86-23.71-46.7 2.89-38.2-4-44.6 32.4-57.65 58.26s-44.67 67.29 2.72 70.36c-26.18 7-41.84 113.86-39.65 153 3.72-.38-16.24-5.46-27 20.21-8.26 19.79-31.93 130.7-29.09 152.74h625.92V219.66c-4.89-4.36-12-6.59-22.49-5.53z" fill="url(#linear-gradient-3)"/><path id="Path_1788" data-name="Path 1788" d="M306.33 250l.17-.16c-.32.22-.38.24-.17.16zm.17-.16a23.12 23.12 0 003.24-2.85c1-1.25-1.34 1-3.24 2.84zM356.1 214c-23.1 2.32-33.1 16.12-46.36 33v2.36a11.38 11.38 0 00-3.41.65c-1.38 1.33-2.48 2.33-1.72 1.37l-1.82-1.66c8.77-3.94-4.89-19.41-15.71-23.64-10.6-4.15-27.82-1.58-39.91-1.6-30.51 0-55.45 2-72.44 27-11.63-13.23-24.93-12.56-37.21-5.66 7.38-1.14 14.42-.46 20.48 2.7.86 14-3.48 35.37 16.52 29.91 3.28 10.29 7.81 60.82-.84 66.84 12.92 6 15.59 55.64 19.06 68.8-4-38.25 5-75.79 1.47-113.39-1.49-15.75.37-33.31 9.36-46.42 10.76-15.72 22.35-8.7 38.3-14.9 7.92 27.05-.58 51.75 13.85 77.34 2-12.58-1.08-34.56 4-46A23.18 23.18 0 01275 257.6c12.89-3.32 11.42-1.36 14.94 8.72 3.58 10.3 1.6 24.52 1.57 35.87 0 16 5 30.16 4.46 46 6.62-19.46-5.63-72.27 31.41-64 27.23 6 14.93 51.1 11.72 72-4.11 26.74-6.35 54.93-10.48 82.4-2 13-2.66 22.69-8.66 34.38-4.18 8.15-10 14.6-16.4 20.92-10.8 10.71-11.9 11.1-15 24C277 565.06 268.35 617.13 234.32 654c-20.59 22.32-34.52 40.41-36.78 71.9-5.8 80.67 110.91 145.37 181 116.07V219.49c-4.88-4.35-12-6.59-22.48-5.52zm-488.79 227.33c7-3 15.1-7.2 19.67-8.67-.69 13.3 5.94 23.15 7.71 35.68 1.67 11.8-1.06 24 1.42 35.49 12.35-28.27 12.42-49 6.58-77.34-17-1.63-27.64 4.86-35.38 14.84zm97.77 87c-.87-25-8.89-53.46-13.48-77.88-1.18-6.26-1.33-16.63-1.85-27.77-7.63-29.67-57.22-22.79-47.21 2.15 25.32-14 38 26.74 40.15 46.59 2.9 26.57 2.05 48.91-22 61.48 18.52.25 25.45 18.2 29.79 34.06 6.53 23.93 8.44 46.75 20.67 69.93-.27-19.11-7.62-37.39-9.06-56.2-1.36-17.83 3.59-35.21 3-52.37zM69.9 405.52c-.13-1.26-.21-2.53-.29-3.8C51 372.22 45.47 320.89-3.65 324.3c8.24 3.34 14.53 4.81 19.27 15.62 4.08 9.31 4.93 22.83 6.4 32.65a315.72 315.72 0 012.77 61.14c-6.71 1.94-12.87 4.39-17.66 8.91 12.66 4.15 29.15-.43 38.92 11.94 5.57 7.06 6.74 22.55 7.42 31.82 1 13.4 3.35 19.24 8.57 31.45 3.92 9.17 3.84 20.41 10.45 28C87 527.76 77 496 75.89 474.48c-1.16-23.48-3.67-46.24-5.99-68.96z" style="isolation:isolate" fill="#609f81" opacity=".49"/></g></g><g id="Layer_12" data-name="Layer 12"><path id="Path_1789" data-name="Path 1789" d="M378.59 665.76c-4.58-6.91-11.09-11.41-21.15-12.48-11-1.16-26.08 5-22.12 16.88a29.4 29.4 0 011.33 3 17.26 17.26 0 01-1.33-3c-10.23-20.33-32.56-17.5-31.8 4.33-19.47-16.47-38.81 4.42-37.63 23.24-14-8-27.24-3.46-25.57 12.88-6.49-8.73-24.42-7.86-35.87-3.82a33.7 33.7 0 01-5.18 2.29 32.76 32.76 0 015.18-2.29c18.51-10.38-17.41-24.5-32.62-20.61 0-26.57-18.41-35.76-38.8-14.61-.23-2.28-1.73-4.23-2-6.53-9.6-1.4-18.56.35-24.94 7.93-3.37-24.72-49.43-33.16-56-5.86-14.89-18.78-58.1-13.59-61 12.95-13-4.7-20.1 3.41-19.5 15.81C-34 678.59-57.14 679-68.42 690.5c.47-9.94-19.45-20.1-26.68-14.72a16 16 0 010 3.09 5.47 5.47 0 01-2.47 1.19 6.34 6.34 0 012.46-4.28c-2-21.31-42.61-14.82-47.66.21-13.91-24.34-53.49-11.44-44.78 14.24-24.09-17.27-34 8.68-30.09 21.7-6.42-7.27-14.68 2.34-20.63 9.64-7.47-10.57-29.22-14.67-36.32-1.43-9.16-9.95-48.63-20.07-49.59 0-9.82-8.04-25.82-10.21-35.82-.61a23.54 23.54 0 00-6.06 10.62c.52.63 1 1.2 1.4 1.65-.57.11-1.14.19-1.71.26a7.62 7.62 0 00.48 3.6l6 3.58c-3.34-.27-5.18-1.65-6-3.58l-6-3.57a25.38 25.38 0 005.51 0 12.44 12.44 0 01.3-1.91c-3.52-4.25-9.4-11.78-13.27-13.52-9.82-4.4-34.07-.87-32.9 12.17-5.66-6.92-22.5-7.65-30.17-3.59-9.66 5.12-9.39 10.72-9.15 21-.59-.8-6.07-6.43-7.19-6-8.9 3.45-12 2.16-13.51 16.27-.81 7.74 1.54 15.43 4.54 22.48 7.27 17.12 22.23 27.43 30.35 43.17C-429 838.41-425.1 860.3-418 878c15.1 37.51 46.63 74.56 83.06 96.1 44 26 103.36 23 153.07 22.77 84-.47 169.12 3.7 253.16 6 83.53 2.32 171.2 7.52 253-12 18.87-4.51 37.71-10 54.31-18.3z" style="isolation:isolate" opacity=".35" fill="#fff"/><path id="Path_1790" data-name="Path 1790" d="M-425.33 863.24s0 .08-.05.13c1.92 1.17 3.86 2.28 5.88 3.26.43.22.88.4 1.32.62 12.95 4.81 26.55 7.8 40.17 10 1.77.28 3.55.55 5.32.81q5.67.69 11.34 1.25 13.22 1.28 26.46 2c47 2.53 94.24 1.13 141.21-1.7 39.25-2.36 78.24-6.26 117.58-7.1 94.61-2 189.27 4 283.86 0 23.42-1 46.83-2.53 70.13-5.08q8.57-.93 17.09-2c1.47-.2 3.48-.47 4.12-.57 2.77-.41 5.53-.81 8.28-1.25 11-1.75 22-3.82 32.91-5.94 13.28-2.58 26.54-5.48 39.61-9v-100c-11.57-9.34-38.7-12.56-44.93 3-16-38.24-52.88-2.68-55.76 21.78 2.85-30.22-39.23-41.94-57.67 1.28-2.42-11.64-2.07-20-26.48-20.4 5.79-27.1-13.85-37.06-33.46-19C153.55 685 57 694.22 54.79 745.8c-6.5-15.31-46.79-28.42-57.91-2.55-5.81-36.47-58.88-33.37-60.44-3.72-5.64-22.35-56.64-13.33-59.72-10.37-20.91 20.05-20.92 17.73-25.29 43.63-33.87-19.6-93 8.19-68.91 28.47-8-2.68-33.05-5.92-38 8.32a13.21 13.21 0 006 15.9l-1.9 4.74c.2-1.68.39-3.35.58-5a30.67 30.67 0 00-.85 4.73c-12.32-.89-54.44-10.46-53 5.2-12.65-3.11-31.36-2.74-40.16 6.22 9.21 13.12-6.9 10.19-17 10.85-16 1-30 2.06-46.19 5.69a74.34 74.34 0 00-16.06.22 28.39 28.39 0 01-1.27 5.11z" style="isolation:isolate" opacity=".52" fill="#fff"/><path id="Path_1791" data-name="Path 1791" d="M253.87 718a33.7 33.7 0 00-5.18 2.29 33.7 33.7 0 005.18-2.29z" style="isolation:isolate" opacity=".25" fill="#fff"/><path id="Path_1795" data-name="Path 1795" class="cls-3" d="M378.83 748.22c-11.89-9-38.18-11.82-44.29 3.46-11.31-27.11-33.16-17.12-46-.29a64.09 64.09 0 0118.55-3.94c13.51-.64 19.73 8 30.8 14 .17-14.4 19.61-13.78 40.8-9.54.12-1.24.14-2.47.14-3.69z"/><path id="Path_1796" data-name="Path 1796" class="cls-3" d="M54.36 745.87c-6.5-15.32-46.79-28.42-57.91-2.56-5.82-36.46-58.88-33.37-60.44-3.72-5.64-22.36-56.64-13.33-59.72-10.37-20.91 20.06-20.92 17.78-25.29 43.63-33.87-19.6-93 8.19-68.9 28.47-8-2.67-33.06-5.92-38 8.32a13.12 13.12 0 00-.53 6.72c7.77-13.27 39.73-12 50.22-4.78-21.83-27.88 34.15-43.36 49.86-29.64-10.55-4.8-18.78 8.39-17.56 17.76 11.26-12.08 30.13-21.06 46.19-14.42.45-6.15-5-8.24-10.36-9.31-3-16.39 19.2-34 33-38.94 16.9-6 35.46-3.63 48.09 8.87-2.48-17.78 22.7-21.09 33.08-16 11.68 5.73 23.14 16.65 29 27.94.27-26.58 44-12.62 55.86-4.77a84 84 0 00.5-27.9 38.22 38.22 0 00-7.09 20.7z"/><path id="Path_1799" data-name="Path 1799" class="cls-3" d="M378.52 868.66c-8.3-4.43-38.72-21.23-33.2 3.31-8.55-21.94-34.45-10.82-46.89 2.36-4.6-14.11-33.86-17.11-36.39 0 1.78-24.25-49.68-11.82-58.23-.11-8.7-4.54-17-10.29-26.89-10.14.41 3.92-1 8.52-.13 12.5-9.91-42.28-64-28.63-65.08 11.16-11.86-19.15-37.58-10.27-51.32.57-7.5-19.2-38.1-22.1-47.12-2.75-4-17.6-34.83-11.56-47.22-6.33.76.13-9-3.86-9.1-3.89 0 1.16.23 4.8-.17 5.74-13.57-23.05-35-10.2-49.24 2.84-3.07-28-43.57-14.85-53.8-.1 1.08-25.08-37.19-30.53-31.8-2.76-10.05-30.56-59.85-4.55-56.15 22.46-4.56-14.11-25.36-18.77-32.12-4.47-8.9-22.09-34-11.92-39.86 6.6-5-20.7-24.39-15.39-33.65 0-18.53-13.15-48.09 12.13-33.75 14.31l2.25 137.68 749.58-5.15s5.76-170.13.28-183.83z"/></g><g id="Layer_16" data-name="Layer 16"><g id="Group_1033" data-name="Group 1033"><path id="Path_1815" data-name="Path 1815" d="M74.36 933.28c7.75-17-16.74-30.35-28.9-36-26.12-12.28-59.29-12.94-87.73-12.35-18 .38-35.41 5.61-53.44 6.33-12.83.5-25.55 1.62-38.07 4.51-16.25 3.74-33.31 6.92-43.27 21.67-.83 1.23-1.42 2.19-1.89 3-.93 3.68-1.18-5.42-3-2.24 0 0 .92 2.79.95 2.81l-1.53-2.29c-.67.87-18.32.45-15.76 14.37 2.21 12 13.69 8.12 18 8.54-9.19.51-16.33 13.64-4.48 12.49-1.56 6.66-2.81 5.2.69 13.25 2.1 4.83 17.72 8.38 18.93.57-10.26 5.56 15.67 16.9 26.56 8.53.23 4.26 6.28 5.36 11.26 2 7.36 4.67 17.71.69 17.9-6.56.55 4.43 14.19 9.94 15.66 1.86.34 10.23 5.54 6 11.3 3.9-5.52 9.57 8.25 23.06 22.78 12.06 2.82 4.59 20.69 8.64 26.94 7.1 7.53-1.85 7.16-12.7 8.71-19.38 7.8 10.93 25.52.94 20.48-9a9.07 9.07 0 01-2.13-2.85 11.35 11.35 0 012.13 2.85c5.54 5.2 17.8 6.77 17.24-3.14 5.88 6.89 7.4 3.26 13 .18 2.4-1.3 3.23-3.13 5.58-4.27 3.18-1.55 8.85-1.61 12.41-2.62 4.77 7 19.05 7.4 21.69-1.81 5.94 3.38 23.61 10.71 26.07-2.48 1.41-7.21-11.83-19.42-18.08-21.03z" fill="#3f5831"/><path id="Path_1816" data-name="Path 1816" d="M-35 953.77c-2.82-11.31 1.06-40-4.82-50.07-3.36-5.73-6.33.83-13 1-2.6 14.67 8.42 53.24-.21 52-31.24-5.94-11.57-71.24-25.34-71.4-.24 1.87-7.34 14.65-7.06 16.59 1.22 10 5.71 37.94-2.32 39-5.5.79-13.66-4.53-18-7.62-6.6-4.76-9.86-17.15-16.14-19.6-15.3-6-.7 15.35 3.75 18.65 18 13.33 14.88 19.5 52.28 37.54 16.52 18.28 33.3 63.29 51.78 78.69 8.66-3.4 16.77-10.07 24-16.07-7.48-17.31-22.68-33.32-32.34-49.85-5.28-9-10-18.53-12.58-28.86z" fill="#92602a"/><path id="Path_1819" data-name="Path 1819" class="cls-13" d="M97 906c3.1-.1 7.73.42 11.4 0 .93-14.55-13.59-28.3-28-29.33 14.93-2.3.44-13.41-7.24-14.28 45.27-1.78 1.72-21.5-5.2-11.11-.19.45-.8-.32-1 .05.15-.46-.77-.66-.53-1 2.76-6.36 5.72-19.33-1.91-21.78s-18.21 18.23-19.69 24.11C33.73 834.33 33 859.79 33.51 868c-3.6-2.63-7.39-5.66-11.85-6.41-.22 2.56-2 4.07-2.19 6.62-4-8.51-18.28-4.9-25.69-5.7 6.28 0 4.34-8 2.65-12.4C-7.43 840-14.71 842-22.93 840c5.76-1.33 5.14-7.5 2.15-11.6-4.1-5.63-6.8-4-12.58-3.85 1.53-19.92-14.08-19-26.41-7 1.41-9.71-10.83-3.26-13.77 1.17-6.13-7.69-10.86-4.16-14.34 2.92a8.83 8.83 0 00-10.26-7.14c-.21 0-.42.08-.63.14-6.74 1.66-10.16 9.8-10.71 15.75-5.67-5.27-13-13.43-20.07-5.06-4.07 4.8-2.53 13.8.38 19.06-3.85-4.33-15.55-5.73-19.54-1-11.88-13.42-23.35 4.32-18.51 11.16a4.16 4.16 0 013.57 2l3.28.44c-3.46.3-5.66-.74-6.85-2.44-6.67-.12-17.46 12.42-18.69 17.73-9.34-3.75-24.25-1.19-27.37 9.81s8.87 13.39 17.29 15.8a43.81 43.81 0 00-12.89 5.11c3.27 8.57 17.81 4 24.43 2.78-5.45 1.53-16.16 14.36-9.61 21.93 5.45 6.3 15.78 1 22.34-3.22.36-.69 1.34-1.43 3.17-2.17-.89.64-2 1.39-3.17 2.17-1.31 2.48 5.49 4.32 9.28 3.59 7.29-1.4 11.18-5.3 16-10.2-.64 9.88-4.82 20.88 3.77 28.53 9.52-4.17 20.9-16.7 21.8-26.58 5.59 13.21 18.47.2 18.2-7.87-.27 5 6.63 20.88 18.38 7.06 7.79 10.9 24.06-.78 23.21 4.1-1.62 9.34 22.65 22.31 30.85 4.46.19 6.67 11.34 12.48 11.85 6.76 8.93 10.23 16-7.25 30.63-5.94 7.2.65 14.63 1.26 18-6.2 1.6 6.43 5.62 5.38 10.51 4.3 8-1.76 9-3.09 18.3-1.41 8.92 1.61 44.6 9.16 49.87-3.11 3.34-7.61-7.28-13.19-11.93-15.98z"/><path id="Path_1826" data-name="Path 1826" class="cls-14" d="M67.37 850c-.2.46-.39.87-.59 1.23a5.16 5.16 0 01.59-1.23c2.76-6.35 4.75-20.46-2.88-22.92s-18.09 18.69-19.57 24.56c-11.06-18.33-12.5 6.86-12 15.09-3.6-2.63-7.77-5.72-12.23-6.47-.21 2.57-1.18 5.35-1.4 7.9-4-8.52-18.29-4.9-25.69-5.7 6.27 0 6-8.29 4.32-12.72-3.85-10.11-12.81-7.79-21-9.86 5.75-1.33 6.47-8.78 3.48-12.88-4.1-5.64-8.14-2.7-13.91-2.58C-32 804.5-46.62 804-58.95 816c1.41-9.71-11.67-3.94-14.61.48-6.14-7.69-11-3.38-14.47 3.7-.75-5-6.6-8.25-11.53-7-6.74 1.67-9.27 9.89-9.82 15.84-5.67-5.27-12.88-13.55-20-5.18-4.07 4.79-4.12 13.55-1.21 18.8-3.85-4.32-14.29-4.14-18.27.6-11.88-13.41-23.35 4.33-18.51 11.17a4.18 4.18 0 013.58 2l-1.13 4.42c3-2.55 21.4-3.9 24.85 1.56-1.53-12.06 10.84-13.62 18.73-10.5-2.82-4.48-1.93-9.2 3.83-10.89 4.48-1.32 15.87.3 19.5 3.11-1.43-9.64 13.76-7.78 19.11-3.89-5-6.61.29-15.8 5.36-12.05.76-9.73 13.12-3.66 15.67 3.88-.37-6.1 8.29-10.63 13.38-9.33 8.42 2.15 3.45 3.62 5.36 10.11 4.59-3.39 9.46-3.41 11.82 1 2.94 5.47-4.42 13.81-4.56 18.85 4.66-3.79 19.3-2.49 22.56 2.33 3.68 5.45-1 7.38-.92 13.5 4.12-4.8 22.56-2.69 25.22 2.83 2.87-3.57 7.19-3.93 9.7.44 1.38-6.89 10.36-.65 12.68 2.66.18-4.63 3.71-10.68 5.7-14.76 3.14-6.49 3.41-5.51 9.22-4.27 0-2.17 1.1-3.64 1.18-5.73 5.73-1.13 7.86 3.31 7.43 8.1 2.54-4.46 12.78-2.6 17.32-2.18 2.35.23 7.68-.3 9.43 1.66a3.56 3.56 0 011.15 3.17C106.07 855 73.17 841.32 67.37 850zM-186 872.14c-9.35-3.75-25.58-1.61-28.69 9.39-3.06 10.83 12.33 15.4 20.76 17.8 1-2 6.89-6.61 5.36-6.22-19.22-4 12.23-17.5 19.88-10.89-10.78-7.93.29-15.28 6.79-14.46-3.81-4.11 2.86-7.62 5.44-10-2.39-.16-9.9-1.94-10.86-3.3-6.67-.13-17.46 12.4-18.69 17.72zm58.42 103.47c-3.51-.26-6.47-.19-5.74-4.6-5.39 4.41-9.74 7.79-17.19 4.55-6.78-2.94-10.7-10-10.7-17-4.78 3.28-6.6 9.06-14.09 5.86-5.56-2.38-2-9.37 1.29-12-4.32 1.4-11.69-1.2-7-6.07 3.35-3.46 9.5-3.17 13.86-3.48-5.42-2.49-12-3.15-16.14-7.53a18.26 18.26 0 01-2.92-4.77c4.87-.46 10.32-3.44 14.35-6.06.36-.68 1.34-1.42 3.17-2.16-.9.63-2 1.38-3.17 2.16-1.31 2.48 5.5 4.33 9.28 3.6 7.29-1.4 11.18-5.3 16-10.2 0 .32-.05.64-.08.95.11-.52.25-1 .36-1.56-9.23 5.94-18.5 9.39-22.7 2.7-5.32 2.69-11.84 4.74-16.35 1.51-7.89-5.62.37-16 7-21.27-6 0-12.66 1.19-18.3-1.18 2.7 2.68 2.74-.44 1.94-3.15-4.47 1.06-11.37 4.67-15.66 7.23 3.27 8.56 19.18 3.88 25.8 2.67-4.6 1.3-12.94 10.64-11.5 18.07-2.16 2-3.46 5.06-2.63 9.6 2.21 12.09 13.71 8.16 18.05 8.58-9.2.51-16.36 13.72-4.49 12.56-1.56 6.7-2.82 5.22.69 13.31 1.68 3.87 11.93 6.91 16.65 4 .95 5.62 20 12 28.91 5.12.25 4.28 6.3 5.39 11.29 2l.36.2a9.75 9.75 0 01-.38-3.64z"/></g></g><g id="Layer_5" data-name="Layer 5"><g id="Group_1038" data-name="Group 1038"><path id="Path_1890" data-name="Path 1890" class="cls-15" d="M361.71 1057.61c5.55-19.61-.29-51-8.93-55.06-10.53-4.95 19.2-30.61-21.86-101.08-39.42-67.67-49.37-81.16-55.36-77.59a89.62 89.62 0 0024.34-43.66C307.1 748.05 286 728 278.43 723a8.57 8.57 0 00-2.26-1.14c2.24-.44 8.46-3.72 18.37-20.85 17.7-30.6-4.25-60.65-10.49-67.55-3-3.34-26.95-62.48-136.27-74.3-18.14-2-37.44 64.17-49.42 82.75-14.08 21.83-7.76 56.18-1.83 60.56-5.48-2.39-32.39-9.11-38.61 61-3 34.27-9 153.72-4.49 158.74s-33.56 8-44.93 30.4c-19.74 39-43.31 87.27-48.47 104.94z"/><g id="Group_1037" data-name="Group 1037"><path id="Path_1891" data-name="Path 1891" class="cls-13" d="M319.33 812.17c3-6.26 4.6-25-6.62-25.16-10.09-.12-15.94 19-14.13 26.29-10.29-12.62-19 2.94-11.52 11.87-4.24-5.93-13.8-10.07-21.52-9.53-1.92 7.48 4.77 13.47 5.27 15.9l2.05.82c-7.12 2.54-42.12 25.68-17.39 26.69-14.1 26.35 20.56 15.41 32.46 5.35-7.66 9.76 10.33 32.38 23.12 26.41 14.41 13.37 30.88 4.53 33.13-13.86 24.14 10.65-.22-20.72-3.58-25.29 13.45-1.75 12.41-11.09 2.77-15.92 14.77-4.87 15.59-21.87-4.81-13.83 4.2-3.54 8.9-6.33 12.31-10.59-6.39-9.32-22.69-4.18-31.54.85z"/><path id="Path_1892" data-name="Path 1892" class="cls-14" d="M346.82 883.37c-.81 5-4.21 16.3.82 20.62 2.42 2.07 13.79.66 14.7-1.93 2.33-6.7-9.89-17.2-15.52-18.69z"/><path id="Path_1893" data-name="Path 1893" class="cls-14" d="M338.48 852.31c4 3.89 12.17 13.85 18.34 12.64 3-.58 7.21-10.5 5.39-12.89-4.71-6.16-19.73-3.25-23.73.25z"/><path id="Path_1894" data-name="Path 1894" class="cls-14" d="M340.08 820.8c4.2-3.55 7.73-5.2 11.14-9.48-6.4-9.34-21.25-5.89-30.09-.86 3-6.27 3.1-23.43-8.13-23.57-10.09-.13-17 18.21-15.2 25.48-10-12.33-18 3.2-11.55 12.26.05-3 .55-7.19 3.76-8.19 3.92-1.21 11.15 3.84 13.87 6.42-2.49-7.24-3.66-6.52.39-13 1.46-2.34 4.25-6.4 7.83-5.06 6.62 2.48 3.18 12.89 3.39 17.3 4.27-4.54 6.82-6.68 14.15-5.92 10.35 1.07.94 9.16-.89 12.1 3.68-.7 8.37-5.91 11.85-1.72 3.14 3.76-1.24 7.07-2.9 9.8 4.5.21 7.88 5.95 8.48 9.95a8.43 8.43 0 01-.55 4.39c8.36-3.1 8.1-10.56-.25-14.76 14.77-4.86 15.11-23.19-5.3-15.14zm-53.31 5c0-.43-.81-1.07-.8-1.56-.46-.58-.1-1-.66-1.49.56 1.08 1.07 2.11 1.46 3.07zm58.54 32.2c-1.06 2.54-5 4.51-7.38 5.56 3.6 1.85 4.15 4.48 4.79 8.28.51 3.08.28 6.75.73 9.68.28-1.17 1-3.11 1.18-4.38 18.95 8.41 8-9.19.77-19.37l-.09.23z"/></g><path id="Path_1895" data-name="Path 1895" class="cls-16" d="M103.73 970.81c-10.39-.39-20.18-2.82-30.49-1.1s-20.26 4.6-30.37 4.44c-1.84.57-22.72 2.74-24.56 3.36-5.72 2 9.13 9.68 4.05 12.3C14.2 994 .69 991.47-8.1 990.94c-.08-1-.15-1.94-.22-2.83-6.09 16.17-8 26.65-8 33.42 5.9 3.33 13.36 4.59 18.54 5.46 19.11 3.2 40.2-2.59 58.35-14.12a44.83 44.83 0 00-3.92-4.12c-20.65 5.52-54.82 14.25-54.97-.26 8.56-1.32 17.23 2.54 25.83 1.31 5.34-.76 9.74-4.07 14.78-6.79 10-5.39 20-5.79 30.47-6.65 12.61-1 22.75-5.66 34.6-11.55 4-2 7.94-6.25 11.88-8.41l-.85-.7c-4.49-3.7-9.58-4.7-14.66-4.89zm85.61-109.41a24.29 24.29 0 01-3.72-1.58 223 223 0 00-24.12 4.9c-26.07 6.69-48.51 9.65-76.08 8.54a30.69 30.69 0 01.82-7.88c26.7 5.22 47.05-11 68-23.8-26.06 7.41-47.39 16.84-73.77 15.55a52.42 52.42 0 01-16.2-3.44 101.31 101.31 0 00-11.65 28.82c10.34 7.07 26.34 7.1 39.38 8.18 18.6 1.54 34.31 5.41 53.55 3.63h.06c4.3-15.84 24.15-21.18 40.46-23.76 3.61-.57 7.32-1.1 11.07-1.56a16.3 16.3 0 011.17-1.87 5.39 5.39 0 01-.41-1c-.69-2.06-6.59-4.13-8.56-4.73zm3.17-184.68c4.4-8.74-4.47-15.56-13.06-21.09-4.71-3-11.6-5.41-16.7-7.25-13.37-4.81-34.9-5.91-52.61-7.31 2.9-9.78 47.7-8.74 56.08-7.4 25.69 4.08 33 5.12 58.64 10.1-15-4.92-9.7-5.86-25.17-10.21-17.92-5-36.14-9.63-53.81-14.27-14.25-3.75-16.57-5.7-29.53 2.92-.28 7-25.85 32.66-22.46 40.42 22.86.74 85.64 8.42 98.62 14.09zm44.76 60.46c-5.47 3.52-14.82-.14-21 .05-14.93.44-75.87-28.21-91.19-29.58-23-2-29.15-9.68-44.74 15.94 5.85 2 12.86 1.13 19.06 3.36 4.25 1.54 7.11 3.89 11 5.7 9.09 4.25 19.87 6.8 29.43 10.19-13.08-.43-30 .66-41.21-4.26C87 733.5 86.06 732 73.65 731.21c6.58 6.38.57 12 9.17 16.28 9.11 4.5 35.58 4 45.91 5.91.68.13 1.35.24 2 .35a195.33 195.33 0 0042.12-3.93c17.3-3.39 35.66-7 53.58-4.88 4.34.53 8.62 1.25 12.87 2-.62-3-1.3-6.24-2.06-9.82z"/><path id="Path_1896" data-name="Path 1896" class="cls-15" d="M262.52 803.32c-4.73-1.13-10.49-1.08-14.77-4.5 5.07-12.73 12.95-4 21-12.37 6.27-6.55 7.47-16.46 9.39-24.93a148.9 148.9 0 00-17.69-5.85c-1.78-1.79.1-1 .8-2v1.13c1.85-3.54-5.94-4.59-10-3.33-6.26 1.94-7.51 7-11.1 12.51-8 12.27-31.29 29.48-31.17 45.27 10.08 2.06 20.75 1.12 30.82 3.15 7.6 1.49 24.65 6.87 22.72-9.08z"/><path id="Path_1897" data-name="Path 1897" class="cls-15" d="M298 959.31c12.37-9.43.58-20.86-6.22-27.07-12.24-11.16-19.46-23.25-36-23.18h-2.15c.75-4.88-5.4-9.1-2.46-15.78 1.46-3.31 6.08-5.36 8.12-7.7-4.94-1.8-10.53-3.67-14.1-8 4.08-6.23 6.69-15.82 14.8-17.22 1.6-10.08-20.66-18.53-28.31-20.71-.66 4.54 3.06 8.2 4.65 13 1.92 5.83 1.64 9.73 1.14 16-.9 11.18-2.15 22.38-1.93 33.82.07 3.24-.22 6.19.15 8.69-5.35 1.52-10.3 4-14 8.33l3-1.16c-4.23 3.8-3.36 9.6-5.62 15-1.71 4.08-8.27 10.32-7.92 14.5.63 7.55 28 27.48 34.05 32 13.75 10.36 48.67 21.22 56.76-2.45-16.13-5.52-34.87-1.7-47.64-16.41 12.34-2.23 32.79 6.68 43.68-1.66z"/><path id="Path_1898" data-name="Path 1898" class="cls-16" d="M208.54 902.43l-2.77-1.74a9.88 9.88 0 012.77 1.74z"/><path id="Path_1899" data-name="Path 1899" class="cls-16" d="M205.7 900.67c17.76 13.05-5.29 34.29-13.44 20.58-7.51-12.63 4.37-24.25 13.44-20.58z"/><path id="Path_1900" data-name="Path 1900" class="cls-16" d="M251.05 651.89c8.17 14.37-15.83 24.06-16.87 11.73-.96-11.35 11.65-16.84 16.87-11.73z"/><path id="Path_1901" data-name="Path 1901" class="cls-17" d="M272 943.77c-3.12 21.44-39.15 7.77-29.62-4.94 8.73-11.7 28.01-4.9 29.62 4.94z"/><path id="Path_1902" data-name="Path 1902" class="cls-16" d="M205.77 900.69h-.07l-.12-.1z"/><path id="Path_1903" data-name="Path 1903" class="cls-16" d="M226.9 936l-1.5-.94a7.72 7.72 0 011.5.94z"/><path id="Path_1904" data-name="Path 1904" class="cls-16" d="M163.27 972.86c14.48 9.82 1.64 15.5-6.21 7.27-7.23-7.58-.72-10.83 6.21-7.27z"/><path id="Path_1905" data-name="Path 1905" class="cls-16" d="M172.72 910.23c18.46 3.82 7.22 14-3.82 9.21-10.17-4.44-4.6-9.97 3.82-9.21z"/><path id="Path_1906" data-name="Path 1906" class="cls-16" d="M225.4 935h-.07z"/><path id="Path_1907" data-name="Path 1907" class="cls-16" d="M193.91 768.86l-1.5-1a7.77 7.77 0 011.5 1z"/><path id="Path_1908" data-name="Path 1908" class="cls-16" d="M199.63 781.49c9.74 6.85-.64 14.08-5.57 7.68-4.54-5.89.77-9.91 5.57-7.68z"/><path id="Path_1909" data-name="Path 1909" class="cls-16" d="M222 650.19c9.74 6.85-.63 14.08-5.56 7.68-4.51-5.87.8-9.87 5.56-7.68z"/><path id="Path_1910" data-name="Path 1910" class="cls-17" d="M232.11 733.69c9.74 6.85-.64 14.08-5.56 7.68-4.55-5.9.77-9.91 5.56-7.68z"/><path id="Path_1911" data-name="Path 1911" class="cls-17" d="M266.29 913.72c9.74 6.85-.64 14.07-5.57 7.67-4.54-5.9.77-9.9 5.57-7.67z"/><path id="Path_1912" data-name="Path 1912" class="cls-16" d="M192.41 767.91h-.07z"/><path id="Path_1913" data-name="Path 1913" class="cls-18" d="M83.54 722.68q4.89 1.22 9.74 2.65c2.91-2.54 9.92-1.4 13.57-2.89 8.28-3.37 20-9 21.4-12.5.62-.28 1.25-.57 1.88-.82s1.36-.12 1.83-.29c-10.29-5.42-21.18-4.27-32.95-6.27.22.24-3.15-.34-2.94-.18-5.48-2.39-32.38-9.1-38.6 61-3 34.27-9 153.73-4.5 158.74s-33.56 8-44.92 30.4c-21.64 42.7-46.13 92.54-47.69 105.06 5.63-11.18 11.43-16.65 20.36-27.8 6.65-8.31 10.91-16.51 19.84-22 8.49-5.18 19.44-3.78 22.27-16.14-14-2.25-27.43-3.81-16-20.06 6.76-9.6 14.38-7.92 24.12-10.46 13.3-3.47 26.13-2 39.93-2.26 27.08-.48 44.47-21.94 60.9-15.75-38-7.93-71.88-6.76-72.53-16.06 0-.79-.41-20.68 0-24.71.65-5.78 1.24-10.05 4.6-14.4.56-8.11-.31-18.53 1-25.89 1.93-10.86.16-19.19 9-24.41 6.84-4 13.48.22 19.9-3.16a136.58 136.58 0 00-22.88-4c-5.22-.37-8.65-4.38-9-10.2-1.47-22.42 2.68-48.12 12.68-68.28 2.07-6.22 4.74-12.08 8-15.79a7.9 7.9 0 01.56-1.22c-.8-.23-1.59-.46-2.4-.66-6.71-1.75-3.88-13.33 2.83-11.65z"/><path id="Path_1914" data-name="Path 1914" class="cls-18" d="M283.6 633.38c-3-3.34-27-62.48-136.28-74.3-18.13-2-37.44 64.17-49.42 82.75-13.09 20.3-7.92 53.52-2.44 61.3 3-.32 8.26 2.93 11.39 2.43-2.6-14.32-11.59-40.44-4.82-53.64 9.37-18.28 25.59-16.62 43.28-19.31 1.53-5.72 1.34-7.76 2.87-12.94-5.92-3-11.39-6.82-17.14-10.3 5.1-22.74 3.12-14.92 23.12-13.8 18.3 1 51.27-9.26 69.3-4.18 32.28 9.09 50.91 25.82 69.27 55.23a72 72 0 00-9.13-13.24z"/><path id="Path_1915" data-name="Path 1915" class="cls-17" d="M242.24 804.78a13.75 13.75 0 01-12.68 7.28c-10.39-.07-20.76.24-31.13.75l-.12.37c-15.63 6.06-35.59 3.81-52.13 8-18.31 4.65-36.71 12.73-53.16 20.61 21.23-2.41 44.23 2.78 65.36-.78 19.85-3.34 42.85-14 62.87-7.56 25.56 8.18 19.28 36 21.43 61.06 1.8 20.88 14.77 34.33 19.67 53.2 4.63 17.86-5.75 23.37-17.73 35.87-3.33-2.09-6.65-4.28-10-6.51-.37-.05-.74-.1-1.11-.18-26.35-5.46-50.43-20.38-76.92-24.85-3.29-.55-6.61-1-9.94-1.31 28.23 11.7 54.61 28.57 72.53 55.38a90.71 90.71 0 015.54 9c4.8 8.92 1.43 18.74-5.45 24.48a40.82 40.82 0 01-22.3 9.69c-12.73 3.38-25.6.81-38.28-2a76.83 76.83 0 00-38.22.61c-.92.25-1.84.46-2.76.69-12.72 4.7-26.92 7.25-35.67 9.08h280c5.31-19.68-.51-50.63-9.08-54.66-10.53-5 19.2-30.68-21.85-101.28-39.48-67.89-49.4-81.35-55.39-77.72a89.8 89.8 0 0024.37-43.77c7.2-32.23-12.09-50-19.62-55s2.67 1.08 20.37-29.57c1.47-2.55 2.76-5.05 3.92-7.52-.08-1-.16-2.1-.27-3.14s-.21-2-.26-2.46c-.51-3.84-3.55-12.93-4.11-16.76-.76 1.77-1.55 3.54-2.42 5.28-6.82 13.68-16.12 33-30.43 36a54.12 54.12 0 01-16.55 1c-6.77 1-13.81.52-20.48-.06-11.3-1-22.63-1.56-33.94-2.46l-2-.17c-18.08 2-36.34 3.64-54.61 3.93 20.75 5.87 43.89 7.59 65.45 10.72 22.49 3.27 38.42 8.79 59.88 16.92 6.09 22.99-5.26 52.92-22.78 67.84z"/></g></g><g id="Layer_16_copy" data-name="Layer 16 copy"><g id="Group_1040" data-name="Group 1040"><path id="Path_1916" data-name="Path 1916" class="cls-13" d="M-139.94 1057.61h300.78c-5.16-7.52-13.84-13.1-22.61-13.94 15-1.93.77-13.4-6.88-14.45 45.3-.67 2.24-21.45-4.93-11.24-.2.45-.79-.33-1 0 .15-.45-.76-.68-.51-1 2.92-6.29 6.2-19.19-1.37-21.83s-18.66 17.79-20.28 23.63c-10.61-18.6-12 6.84-11.65 15.08-3.53-2.72-7.25-5.84-11.69-6.7-.28 2.56-2.07 4-2.35 6.57-3.81-8.61-18.16-5.35-25.54-6.32 6.27.18 4.53-7.86 2.95-12.34-3.6-10.2-10.94-8.38-19.1-10.65 5.79-1.19 5.32-7.37 2.43-11.54-4-5.74-6.71-4.14-12.48-4.16 2-19.88-13.62-19.36-26.24-7.68 1.65-9.67-10.74-3.53-13.78.83-6-7.84-10.76-4.43-14.4 2.56a8.84 8.84 0 00-10.09-7.38 5.86 5.86 0 00-.63.12c-6.78 1.5-10.39 9.55-11.09 15.49-5.54-5.4-12.64-13.74-19.94-5.55-4.19 4.69-2.87 13.73-.09 19.06-3.75-4.42-15.41-6.1-19.51-1.46-11.55-13.7-23.44 3.76-18.78 10.71a4.19 4.19 0 013.53 2.08l3.26.53c-3.47.21-5.63-.88-6.79-2.61-6.66-.28-17.76 12-19.11 17.27-9.25-4-24.22-1.78-27.6 9.14-3.17 10.17 7.27 13.27 15.49 15.78z"/><g id="Group_1039" data-name="Group 1039"><path id="Path_1921" data-name="Path 1921" class="cls-14" d="M28.22 1008.26c-3.74-1.51-9.64 2.41-9 6.82l.92-.29c4.51 1.71 8.16.1 11.71 5.3 2.49-3.37.45-10.19-3.63-11.83z"/><path id="Path_1922" data-name="Path 1922" class="cls-14" d="M125.91 1016.72c-.21.45-.42.85-.63 1.21a4.65 4.65 0 01.63-1.21c2.91-6.29 5.24-20.34-2.33-23s-18.53 18.2-20.15 24c-10.62-18.6-12.67 6.54-12.33 14.79-3.54-2.72-7.63-5.91-12.07-6.77-.27 2.56-1.31 5.32-1.59 7.86-3.81-8.6-18.17-5.35-25.55-6.32 6.27.18 6.22-8.14 4.64-12.61-3.6-10.2-12.63-8.1-20.79-10.38 5.78-1.18 6.68-8.61 3.8-12.78-4-5.73-8.07-2.9-13.85-2.92 2-19.88-12.62-20.7-25.23-9 1.64-9.67-11.58-4.23-14.62.13-5.95-7.84-10.91-3.65-14.56 3.34-.63-5-6.39-8.4-11.36-7.3-6.77 1.5-9.5 9.65-10.2 15.59-5.54-5.4-12.54-13.86-19.85-5.66-4.18 4.69-4.45 13.44-1.67 18.77-3.75-4.42-14.18-4.49-18.28.15-11.55-13.7-23.45 3.76-18.78 10.71a4.17 4.17 0 013.22 1.69 7.75 7.75 0 01-3.22-1.69c-6.66-.28-17.76 12-19.11 17.27-9.25-4-25.53-2.24-28.91 8.69-2.58 8.35 6.08 13.2 14 16.17a14.78 14.78 0 011-4.59c2.47-6.17 7.1-10.68 13.8-12a38.51 38.51 0 0115.05.29c-6.74-7.35 3.27-13.29 9.23-12.38-3.15-3.57 1.25-6.52 4.27-8.78 6.61-.59 15.53.24 17.74 3.94-1.23-12.09 11.17-13.36 19-10-2.71-4.55-1.71-9.25 4.09-10.8 4.51-1.21 15.86.7 19.41 3.59-1.19-9.67 14-7.44 19.21-3.42-4.81-6.73.67-15.79 5.64-11.92 1-9.7 13.21-3.34 15.58 4.27-.22-6.11 8.54-10.43 13.6-9 8.36 2.35 3.37 3.7 5.11 10.24 4.67-3.28 9.55-3.18 11.8 1.28 2.8 5.54-4.76 13.7-5 18.73 4.75-3.68 19.35-2 22.49 2.88 3.55 5.54-1.18 7.35-1.24 13.48 4.23-4.7 22.62-2.14 25.14 3.44 3-3.5 7.28-3.75 9.69.68 1.54-6.85 10.37-.4 12.6 3 .3-4.62 4-10.58 6.06-14.62 3.3-6.4 3.55-5.42 9.32-4 0-2.17 1.19-3.61 1.33-5.69 5.75-1 7.77 3.5 7.22 8.28 2.66-4.4 12.84-2.3 17.37-1.76 2.35.28 7.69-.1 9.39 1.89a3.54 3.54 0 011.07 3.18c17.37-5-15.17-19.52-21.18-10.94z"/></g></g></g></g><path id="Rectangle_273" data-name="Rectangle 273" style="isolation:isolate" fill="#4b4b4b" opacity=".3" d="M-43 0h417v1058H-43z"/><path id="Path_1581" data-name="Path 1581" d="M141.87 172.94l-2.81-.17c1.52.08 2.61.15 2.81.17z" fill="#ffde55"/></g></g></svg>