<svg viewBox="0 0 375.78 97.55" xmlns="http://www.w3.org/2000/svg" xmlns:xlink="http://www.w3.org/1999/xlink"><clipPath id="a"><rect height="90" rx="9" width="366" x="1.93" y="5.6"/></clipPath><linearGradient id="b" gradientTransform="matrix(-347.2 0 0 57.09 -645616.79 105218.47)" gradientUnits="userSpaceOnUse" x1="-1859.53" x2="-1860.39" y1="-1842.72" y2="-1842.86"><stop offset="0" stop-color="#2099e2"/><stop offset="1" stop-color="#63d5eb"/></linearGradient><linearGradient id="c" gradientTransform="matrix(366.74 0 0 -60.3 679301.26 -116949.05)" gradientUnits="userSpaceOnUse" x1="-1850.85" x2="-1851.64" y1="-1940.75" y2="-1940.5"><stop offset="0" stop-color="#3bb2e5"/><stop offset="1" stop-color="#50c5e8"/></linearGradient><linearGradient id="d" gradientTransform="matrix(366.74 0 0 -60.3 679134.26 -116949.05)" gradientUnits="userSpaceOnUse" x1="-1851.65" x2="-1850.88" y1="-1940.5" y2="-1940.92"><stop offset="0" stop-color="#53c8e8"/><stop offset="1" stop-color="#229be2"/></linearGradient><linearGradient id="e" gradientTransform="matrix(20.72 0 0 -24.38 37203.92 -48954.33)" gradientUnits="userSpaceOnUse" x1="-1780.89" x2="-1780.89" y1="-2010.07" y2="-2011.07"><stop offset="0" stop-color="#36abe4"/><stop offset="1" stop-color="#1c7ead"/></linearGradient><linearGradient id="f" gradientTransform="matrix(6.09 0 0 -24.38 10077.57 -48954.33)" gradientUnits="userSpaceOnUse" x1="-1601.82" x2="-1601.82" y1="-2010.07" y2="-2011.07"><stop offset="0" stop-color="#37a9e1"/><stop offset="1" stop-color="#5ca4c7"/></linearGradient><linearGradient id="g" gradientTransform="matrix(6.45 0 0 -16.77 10744.64 -34545.1)" gradientUnits="userSpaceOnUse" x1="-1615.78" x2="-1615.78" y1="-2063.46" y2="-2064.46"><stop offset="0" stop-color="#34a8e0"/><stop offset="1" stop-color="#1e81b1"/></linearGradient><linearGradient id="h" gradientTransform="matrix(16.77 0 0 -16.77 29878.12 -34545.1)" gradientUnits="userSpaceOnUse" x1="-1763.29" x2="-1763.29" y1="-2063.46" y2="-2064.46"><stop offset="0" stop-color="#34a8e0"/><stop offset="1" stop-color="#1274a3"/></linearGradient><rect fill="#259be2" height="90" rx="9" width="366" x="1.93" y="5.6"/><g clip-path="url(#a)"><g opacity=".39"><path d="m-15.27 24.57 11.58 5.14c11.57 5.23 34.69 15.36 57.86 19.29s46.3 1.37 69.44-5.14 46.3-16.64 69.44-24.42a335.79 335.79 0 0 1 69.44-15.44c23.15-2.58 46.3-2.58 57.87-2.58h11.57v-7.71h-347.2z" fill="url(#b)"/><path d="m168.93 63.3 12.23-5.42c12.22-5.53 36.67-16.22 61.12-20.38 24.45-4 48.9-1.45 73.35 5.43s48.9 17.57 73.37 25.8a355 355 0 0 0 73.33 16.27c24.45 2.72 48.9 2.72 61.12 2.72h12.23v8.18h-366.75z" fill="url(#c)"/><path d="m1.93 63.3 12.23-5.42c12.22-5.53 36.67-16.22 61.12-20.38 24.45-4 48.9-1.45 73.35 5.43s48.9 17.57 73.37 25.8a355 355 0 0 0 73.33 16.27c24.45 2.72 48.9 2.72 61.12 2.72h12.23v8.18h-366.75z" fill="url(#d)"/></g></g><circle cx="309.93" cy="50.6" fill="#9edaf8" r="30"/><path d="m313.06 46.27a.61.61 0 0 1 -.61-.6v-6.1a4.27 4.27 0 1 0 -8.53 0v6.1a.61.61 0 0 1 -1.22 0v-6.1a5.49 5.49 0 1 1 11-.15v6.25a.6.6 0 0 1 -.61.6z" fill="#d6ecff"/><path d="m314.28 67.6h-20.72l1.22-24.37h18.28z" fill="url(#e)"/><path d="m319.16 67.6h-4.88l-1.22-24.37h4.88z" fill="url(#f)"/><path d="m316.75 64.56a.61.61 0 0 1 -.61-.58l-1.22-20.72h1.22l1.22 20.68a.62.62 0 0 1 -.58.65z" fill="#d6ecf5"/><path d="m299 45.66h1.22v3.66h-1.22z" fill="#dadcde"/><path d="m299.65 46.27a.61.61 0 0 1 -.61-.6v-6.1a5.49 5.49 0 0 1 11-.15v6.25a.6.6 0 0 1 -.61.6.61.61 0 0 1 -.61-.6v-6.1a4.27 4.27 0 1 0 -8.53 0v6.1a.6.6 0 0 1 -.64.6z" fill="#d6ecff"/><path d="m301.48 54.2h-3.65v-4.88l1.82-1.22 1.83 1.22z" fill="#259be2"/><path d="m327.68 67.6h-5.16l-.08-1-1.21-15.72h5.16l1.19 15.45z" fill="url(#g)"/><path d="m325.78 64.38h-.07a.64.64 0 0 1 -.64-.58v-.23l-1.29-12.67v-.06h1.29l1.27 12.67v.16a.65.65 0 0 1 -.56.71z" fill="#d6ecf5"/><path d="m323.13 67.6h-16.76l1.29-16.76h14.18z" fill="url(#h)"/><path d="m315.39 63.09h-1.29a3.23 3.23 0 0 1 -3.22-3.23v-5.16a.65.65 0 0 1 1.29 0v5.16a1.94 1.94 0 0 0 1.93 1.94h1.29a2 2 0 0 0 1.94-1.94v-5.16a.65.65 0 0 1 1.29 0v5.16a3.23 3.23 0 0 1 -3.23 3.23z" fill="#d6ecf5"/></svg>