<svg id="Layer_1" data-name="Layer 1" xmlns="http://www.w3.org/2000/svg" xmlns:xlink="http://www.w3.org/1999/xlink" viewBox="0 0 375.78 97.55"><defs><style>.cls-1{fill:none;}.cls-2{fill:#259be2;}.cls-3{clip-path:url(#clip-path);}.cls-4{opacity:0.39;}.cls-5{fill:url(#linear-gradient);}.cls-6{fill:url(#linear-gradient-2);}.cls-7{fill:url(#linear-gradient-3);}.cls-8{fill:#9edaf8;}.cls-9{fill:#d6ecff;}.cls-10{fill:url(#linear-gradient-4);}.cls-11{fill:url(#linear-gradient-5);}.cls-12{fill:#d6ecf5;}.cls-13{fill:#dadcde;}.cls-14{fill:url(#linear-gradient-6);}.cls-15{fill:url(#linear-gradient-7);}</style><clipPath id="clip-path"><rect class="cls-1" x="1.93" y="5.6" width="366" height="90" rx="9"/></clipPath><linearGradient id="linear-gradient" x1="-1859.53" y1="-1842.72" x2="-1860.39" y2="-1842.86" gradientTransform="matrix(-347.2, 0, 0, 57.09, -645616.79, 105218.47)" gradientUnits="userSpaceOnUse"><stop offset="0" stop-color="#2099e2"/><stop offset="1" stop-color="#63d5eb"/></linearGradient><linearGradient id="linear-gradient-2" x1="-1850.85" y1="-1940.75" x2="-1851.64" y2="-1940.5" gradientTransform="matrix(366.74, 0, 0, -60.3, 679301.26, -116949.05)" gradientUnits="userSpaceOnUse"><stop offset="0" stop-color="#3bb2e5"/><stop offset="1" stop-color="#50c5e8"/></linearGradient><linearGradient id="linear-gradient-3" x1="-1851.65" y1="-1940.5" x2="-1850.88" y2="-1940.92" gradientTransform="matrix(366.74, 0, 0, -60.3, 679134.26, -116949.05)" gradientUnits="userSpaceOnUse"><stop offset="0" stop-color="#53c8e8"/><stop offset="1" stop-color="#229be2"/></linearGradient><linearGradient id="linear-gradient-4" x1="-1780.89" y1="-2010.07" x2="-1780.89" y2="-2011.07" gradientTransform="matrix(20.72, 0, 0, -24.38, 37203.92, -48954.33)" gradientUnits="userSpaceOnUse"><stop offset="0" stop-color="#36abe4"/><stop offset="1" stop-color="#1c7ead"/></linearGradient><linearGradient id="linear-gradient-5" x1="-1601.82" y1="-2010.07" x2="-1601.82" y2="-2011.07" gradientTransform="matrix(6.09, 0, 0, -24.38, 10077.57, -48954.33)" gradientUnits="userSpaceOnUse"><stop offset="0" stop-color="#37a9e1"/><stop offset="1" stop-color="#5ca4c7"/></linearGradient><linearGradient id="linear-gradient-6" x1="-1615.78" y1="-2063.46" x2="-1615.78" y2="-2064.46" gradientTransform="matrix(6.45, 0, 0, -16.77, 10744.64, -34545.1)" gradientUnits="userSpaceOnUse"><stop offset="0" stop-color="#34a8e0"/><stop offset="1" stop-color="#1e81b1"/></linearGradient><linearGradient id="linear-gradient-7" x1="-1763.29" y1="-2063.46" x2="-1763.29" y2="-2064.46" gradientTransform="matrix(16.77, 0, 0, -16.77, 29878.12, -34545.1)" gradientUnits="userSpaceOnUse"><stop offset="0" stop-color="#34a8e0"/><stop offset="1" stop-color="#1274a3"/></linearGradient></defs><title>Untitled-1</title><rect id="Rectangle_569-2" data-name="Rectangle 569-2" class="cls-2" x="1.93" y="5.6" width="366" height="90" rx="9"/><g class="cls-3"><g id="Mask_Group_15" data-name="Mask Group 15" class="cls-4"><path id="wave-5" class="cls-5" d="M-15.27,24.57l11.58,5.14C7.88,34.94,31,45.07,54.17,49s46.3,1.37,69.44-5.14,46.3-16.64,69.44-24.42A335.79,335.79,0,0,1,262.49,4c23.15-2.58,46.3-2.58,57.87-2.58h11.57V-6.29H-15.27Z"/><path id="wave-5-2" class="cls-6" d="M168.93,63.3l12.23-5.42c12.22-5.53,36.67-16.22,61.12-20.38,24.45-4,48.9-1.45,73.35,5.43S364.53,60.5,389,68.73A355,355,0,0,0,462.33,85c24.45,2.72,48.9,2.72,61.12,2.72h12.23V95.9H168.93Z"/><path id="wave-5-3" class="cls-7" d="M1.93,63.3l12.23-5.42C26.38,52.35,50.83,41.66,75.28,37.5c24.45-4,48.9-1.45,73.35,5.43S197.53,60.5,222,68.73A355,355,0,0,0,295.33,85c24.45,2.72,48.9,2.72,61.12,2.72h12.23V95.9H1.93Z"/></g></g><circle id="Ellipse_87-2" data-name="Ellipse 87-2" class="cls-8" cx="309.93" cy="50.6" r="30"/><path id="Path_2671" data-name="Path 2671" class="cls-9" d="M313.06,46.27a.61.61,0,0,1-.61-.6v-6.1a4.27,4.27,0,1,0-8.53,0h0v6.1a.61.61,0,0,1-1.22,0v-6.1a5.49,5.49,0,1,1,11-.15v6.25a.6.6,0,0,1-.61.6Z"/><path id="Path_2672" data-name="Path 2672" class="cls-10" d="M314.28,67.6H293.56l1.22-24.37h18.28Z"/><path id="Path_2673" data-name="Path 2673" class="cls-11" d="M319.16,67.6h-4.88l-1.22-24.37h4.88Z"/><path id="Path_2674" data-name="Path 2674" class="cls-12" d="M316.75,64.56h0a.61.61,0,0,1-.61-.58l-1.22-20.72v0h1.22l1.22,20.68a.62.62,0,0,1-.58.65Z"/><path id="Path_2680" data-name="Path 2680" class="cls-13" d="M299,45.66h1.22v3.66H299Z"/><path id="Path_2681" data-name="Path 2681" class="cls-9" d="M299.65,46.27a.61.61,0,0,1-.61-.6h0v-6.1a5.49,5.49,0,0,1,11-.15v6.25a.6.6,0,0,1-.61.6.61.61,0,0,1-.61-.6v-6.1a4.27,4.27,0,1,0-8.53,0h0v6.1A.6.6,0,0,1,299.65,46.27Z"/><path id="Path_2682" data-name="Path 2682" class="cls-2" d="M301.48,54.2h-3.65V49.32l1.82-1.22,1.83,1.22Z"/><path id="Path_2675" data-name="Path 2675" class="cls-14" d="M327.68,67.6h-5.16l-.08-1h0l-1.21-15.72h5.16l1.19,15.45h0Z"/><path id="Path_2676" data-name="Path 2676" class="cls-12" d="M325.78,64.38h-.07a.64.64,0,0,1-.64-.58l0-.23L323.78,50.9v-.06h1.29l1.27,12.67v.16A.65.65,0,0,1,325.78,64.38Z"/><path id="Path_2678" data-name="Path 2678" class="cls-15" d="M323.13,67.6H306.37l1.29-16.76h14.18Z"/><path id="Path_2679" data-name="Path 2679" class="cls-12" d="M315.39,63.09H314.1a3.23,3.23,0,0,1-3.22-3.23V54.7a.65.65,0,0,1,1.29,0h0v5.16a1.94,1.94,0,0,0,1.93,1.94h1.29a2,2,0,0,0,1.94-1.94V54.7a.65.65,0,0,1,1.29,0h0v5.16A3.23,3.23,0,0,1,315.39,63.09Z"/></svg>