<svg viewBox="0 0 321.2 330.31" xmlns="http://www.w3.org/2000/svg"><path d="m297.26 195.58c-23.26-16.88-23.26-47.69 0-64.58a35.91 35.91 0 0 0 -35.66-61.86c-26.31 11.14-58.76-8.14-61.46-36.63a35.91 35.91 0 0 0 -71.39-.93c-3.54 28.38-42.13 49.83-68.14 38a35.91 35.91 0 0 0 -51.35 32.42 35.88 35.88 0 0 0 16.74 30.32c24.08 15.47 25.92 46.34 3.83 64.57a35.91 35.91 0 0 0 22.8 63.64 35.65 35.65 0 0 0 17.14-4.36c25.24-13.18 54.17 1 59.23 29a35.9 35.9 0 0 0 70.78 0c5.06-28.06 34-42.21 59.23-29a35.9 35.9 0 0 0 38.25-60.59zm-115.72 52a36 36 0 0 0 -34.3 0c-25.23 13.19-54.17-1-59.23-29a36 36 0 0 0 -16.23-24.32c-24.07-15.46-25.92-46.33-3.78-64.56a35.9 35.9 0 0 0 12.8-23.42c3.55-28.37 42.14-49.82 68.14-38a36 36 0 0 0 30 .4c26.3-11.14 58.76 8.15 61.46 36.63a35.87 35.87 0 0 0 14.66 25.69c23.23 16.88 23.23 47.69 0 64.57a35.92 35.92 0 0 0 -14.29 23c-5.06 28.06-33.99 42.22-59.23 29.03z" fill="#f2f6fb"/><g fill="#898989" opacity=".7"><path d="m272.45 230.1c-15.22 1.79-25.83 1.88-25.83 9.4 0 5.32 8.06 7 21.13 8.78l4.7.62c13.51 1.74 33.48-3.48 33.48-9.4 0-6.4-19.93-10.98-33.48-9.4z"/><path d="m267.75 222.85 4.7.62c13.51 1.73 33.48-3.48 33.48-9.4 0-6.4-20-11-33.48-9.4-15.22 1.78-25.83 1.88-25.83 9.4 0 5.31 8.06 7.02 21.13 8.78z"/></g><path d="m271.56 229.21c13.5-1.58 33.48 3 33.48 9.4 0 5.92-20 11.14-33.48 9.4l-4.7-.61c-13.08-1.77-21.13-3.47-21.13-8.79 0-7.52 10.6-7.61 25.83-9.4z" fill="#d74443"/><path d="m268.58 244.53c-11.39 0-20.62-2.64-20.62-5.9s9.23-5.91 20.62-5.91 20.62 2.64 20.62 5.91-9.2 5.9-20.62 5.9z" fill="#222b37"/><path d="m273.73 245c-5 0-6.32-2.86-6.32-6.39s1.31-6.39 6.32-6.39 21.85 2.85 21.85 6.39-16.83 6.39-21.85 6.39z" fill="#aa3635"/><path d="m269.35 233a.63.63 0 0 1 .12-.37.65.65 0 0 1 .89-.15 17.86 17.86 0 0 1 3.14 2.94c1.41 1.59 2.26 2.55 6.23 2.55 4.72 0 8.71-2.27 8.71-5a.64.64 0 0 1 1.28 0c0 3.5-4.39 6.25-10 6.25-4.55 0-5.65-1.25-7.18-3a16.54 16.54 0 0 0 -2.93-2.74.63.63 0 0 1 -.26-.48z" fill="#222b37"/><path d="m269.35 244.35a.63.63 0 0 1 .27-.52 16.54 16.54 0 0 0 2.93-2.74c1.53-1.74 2.63-3 7.18-3 5.6 0 10 2.74 10 6.25a.64.64 0 0 1 -.64.64.64.64 0 0 1 -.64-.64c0-2.7-4-5-8.71-5-4 0-4.82 1-6.23 2.55a17.86 17.86 0 0 1 -3.14 2.94.65.65 0 0 1 -.89-.15.63.63 0 0 1 -.13-.33z" fill="#222b37"/><path d="m283.38 241.22v-5.22a.63.63 0 0 1 .64-.63.62.62 0 0 1 .63.63v5.19a.64.64 0 0 1 -.63.64.64.64 0 0 1 -.64-.64z" fill="#222b37"/><path d="m276.36 241.22v-5.22a.64.64 0 0 1 .64-.63.63.63 0 0 1 .64.63v5.19a.64.64 0 0 1 -.64.64.64.64 0 0 1 -.64-.64z" fill="#222b37"/><path d="m279.87 241.22v-5.22a.64.64 0 0 1 .64-.63.63.63 0 0 1 .64.63v5.19a.64.64 0 0 1 -.64.64.64.64 0 0 1 -.64-.64z" fill="#222b37"/><path d="m277.92 234.61c0-2.24-.8-4.63-2.28-4.63s-2.28 2.39-2.28 4.63a6.81 6.81 0 0 0 1.51 4 6.84 6.84 0 0 0 -1.51 4c0 2.24.8 4.63 2.28 4.63s2.28-2.39 2.28-4.63a6.91 6.91 0 0 0 -1.51-4 7 7 0 0 0 1.51-4zm-2.28-3.61c.49 0 1.23 1.43 1.23 3.59a5.79 5.79 0 0 1 -1.17 3.2l-.06-.06-.06.06a5.73 5.73 0 0 1 -1.18-3.2c0-2.15.75-3.59 1.24-3.59zm0 15.19c-.49 0-1.24-1.43-1.24-3.59a5.73 5.73 0 0 1 1.18-3.2l.06.06.06-.06a5.71 5.71 0 0 1 1.17 3.2c0 2.18-.74 3.61-1.23 3.61z" fill="#222b37"/><path d="m300.81 235.92c0 .74-1.6 1.33-3.57 1.33s-3.58-.59-3.58-1.33 1.6-1.32 3.58-1.32 3.57.59 3.57 1.32z" fill="#fff" opacity=".35"/><path d="m271.56 203.78c13.5-1.58 33.48 3 33.48 9.4 0 5.92-20 11.13-33.48 9.4l-4.7-.62c-13.08-1.76-21.13-3.47-21.13-8.78 0-7.52 10.6-7.62 25.83-9.4z" fill="#d74443"/><path d="m268.58 219.1c-11.39 0-20.62-2.65-20.62-5.91s9.23-5.91 20.62-5.91 20.62 2.65 20.62 5.91-9.2 5.91-20.62 5.91z" fill="#222b37"/><path d="m273.73 219.57c-5 0-6.32-2.86-6.32-6.39s1.31-6.39 6.32-6.39 21.85 2.86 21.85 6.39-16.83 6.39-21.85 6.39z" fill="#aa3635"/><path d="m269.35 207.59a.63.63 0 0 1 .12-.37.64.64 0 0 1 .89-.15 17.5 17.5 0 0 1 3.14 2.93c1.41 1.59 2.26 2.55 6.23 2.55 4.72 0 8.71-2.28 8.71-5a.64.64 0 1 1 1.28 0c0 3.5-4.39 6.25-10 6.25-4.55 0-5.65-1.26-7.18-3a16.54 16.54 0 0 0 -2.93-2.74.63.63 0 0 1 -.26-.47z" fill="#222b37"/><path d="m269.35 218.91a.64.64 0 0 1 .27-.52 16.54 16.54 0 0 0 2.93-2.74c1.53-1.73 2.63-3 7.18-3 5.6 0 10 2.74 10 6.24a.64.64 0 0 1 -.64.64.64.64 0 0 1 -.64-.64c0-2.7-4-5-8.71-5-4 0-4.82 1-6.23 2.56a17.81 17.81 0 0 1 -3.14 2.93.64.64 0 0 1 -.89-.15.61.61 0 0 1 -.13-.32z" fill="#222b37"/><path d="m283.38 215.78v-5.18a.64.64 0 0 1 .62-.6.63.63 0 0 1 .63.63v5.18a.64.64 0 0 1 -.63.64.64.64 0 0 1 -.64-.64z" fill="#222b37"/><path d="m276.36 215.78v-5.18a.64.64 0 0 1 .64-.6.64.64 0 0 1 .64.63v5.18a.64.64 0 0 1 -.64.64.64.64 0 0 1 -.64-.64z" fill="#222b37"/><path d="m279.87 215.78v-5.18a.64.64 0 0 1 .64-.64.64.64 0 0 1 .64.63v5.18a.64.64 0 0 1 -.64.64.64.64 0 0 1 -.64-.64z" fill="#222b37"/><path d="m277.67 208.66c0-2.24-.8-4.63-2.29-4.63s-2.28 2.38-2.28 4.63a7 7 0 0 0 1.51 4 7 7 0 0 0 -1.51 4c0 2.24.8 4.63 2.28 4.63s2.29-2.38 2.29-4.63a6.89 6.89 0 0 0 -1.52-4 6.89 6.89 0 0 0 1.52-4zm-2.29-3.59c.5 0 1.24 1.44 1.24 3.59a5.73 5.73 0 0 1 -1.18 3.2l-.06-.06-.06.06a5.62 5.62 0 0 1 -1.17-3.2c0-2.15.74-3.59 1.23-3.59zm0 15.19c-.49 0-1.23-1.43-1.23-3.59a5.82 5.82 0 0 1 1.17-3.2l.06.07.06-.07a5.73 5.73 0 0 1 1.18 3.2c0 2.16-.74 3.59-1.24 3.59z" fill="#222b37"/><path d="m300.81 210.4c0 .73-1.6 1.33-3.57 1.33s-3.58-.6-3.58-1.33 1.6-1.34 3.58-1.34 3.57.6 3.57 1.34z" fill="#fff" opacity=".35"/><g fill="#898989" opacity=".7"><path d="m29.26 70.27a.78.78 0 0 0 -.21 0h-13.7a.72.72 0 0 0 -.72.72v67a.72.72 0 0 0 .72.72h1.86v.72a19 19 0 0 0 1.49 2.38l.4.6.33.51c.14.19.28.39.41.59 1.63 2.36 3.4 4.89 3.4 4.89s6.52-8.57 6.52-9v-68.4a.7.7 0 0 0 -.5-.73z"/><path d="m73.39 78.38h-34.62c.3 0 1.7 0 1.65 0h-1.92a1.93 1.93 0 0 0 -1.09.48 2 2 0 0 0 -.63 1.44v.54a2 2 0 0 0 -.82.41 1.92 1.92 0 0 0 -.63 1.43v48.06a1.92 1.92 0 0 0 1.92 1.93h32.8a1.93 1.93 0 0 0 1.77-1.18.76.76 0 0 0 0-.11 2 2 0 0 0 1.18-1.07h.37a1.94 1.94 0 0 0 1.77-1.19 1.84 1.84 0 0 0 .16-.73v-48.08a1.93 1.93 0 0 0 -1.91-1.93z"/><path d="m36 72.22h1.29v.13c0 .57 2 1 2.57 1h23.27a3.66 3.66 0 0 0 -2.85 2.24.41.41 0 0 0 0 .16.51.51 0 0 0 1 .16 2.7 2.7 0 0 1 2.55-1.62 7.71 7.71 0 0 1 2.26.6 8.39 8.39 0 0 0 4 .77 2.52 2.52 0 0 0 2.3-2.31.5.5 0 0 0 -.08-.27 1.11 1.11 0 0 0 .28-.42h.66a.9.9 0 0 0 .9-.9.91.91 0 0 0 -.9-.9h-.69a1.05 1.05 0 0 0 -.93-.6h-31.74c-.56 0-2.57.46-2.57 1v.13h-1.32a.39.39 0 0 0 -.39.39.39.39 0 0 0 .39.44zm33.79 2.45a7.62 7.62 0 0 1 -3.39-.67 14.81 14.81 0 0 0 -1.86-.57h6.74c0 .07-.08.99-1.46 1.24z"/></g><path d="m14.14 69.34h11.75a.4.4 0 0 1 .4.4v67.67a.39.39 0 0 1 -.4.4h-11.75a.39.39 0 0 1 -.4-.4v-67.67a.4.4 0 0 1 .4-.4z" fill="#aa3635"/><path d="m28.88 70.06v68.47c0 .4-6.53 9-6.53 9s-1.77-2.53-3.35-4.92c-.14-.2-.28-.39-.41-.59l-.34-.51c-.15-.21-.28-.41-.4-.6a18.26 18.26 0 0 1 -1.49-2.38v-68.47a.72.72 0 0 1 .72-.72h11.08a.85.85 0 0 1 .22 0 .72.72 0 0 1 .5.72z" fill="#d74443"/><g fill="#aa3635"><path d="m26.36 69.34-10 8.45v-.94l8.93-7.51z"/><path d="m28.37 69.38-12 10.13v-.93l11-9.24h.86a.78.78 0 0 1 .14.04z"/><path d="m28.88 75.63v.93l-12.56 10.56v-.93z"/><path d="m28.88 77.35v.94l-12.56 10.56v-.94z"/><path d="m28.88 85v.94l-12.56 10.51v-.94z"/><path d="m28.88 86.68v.93l-12.56 10.56v-.93z"/><path d="m28.88 94.29v.93l-12.56 10.56v-.93z"/><path d="m28.88 96v1l-12.56 10.51v-.94z"/><path d="m28.88 103.61v.94l-12.56 10.56v-.94z"/><path d="m28.88 105.34v.94l-12.56 10.56v-.94z"/><path d="m28.88 112.94v.94l-12.56 10.56v-.94z"/><path d="m28.88 114.68v.92l-12.56 10.56v-.93z"/><path d="m28.88 122.28v.93l-12.56 10.56v-.93z"/><path d="m28.88 124v.94l-12.56 10.56v-.94z"/><path d="m28.88 131.61v.93l-10.67 9c-.15-.2-.28-.41-.4-.6z"/><path d="m28.88 133.33v.94l-9.88 8.34c-.13-.2-.27-.4-.41-.59z"/></g><path d="m74.43 79.41v48.07a2 2 0 0 1 -.16.73 1.93 1.93 0 0 1 -1.77 1.18h-32.77a1.92 1.92 0 0 1 -1.93-1.92l-1.91-48.06a2 2 0 0 1 .63-1.41 2 2 0 0 1 1.09-.49h1.92-1.71 34.68a1.94 1.94 0 0 1 1.93 1.93z" fill="#d74443"/><path d="m72.28 80.61v48.06a2 2 0 0 1 -.15.73 2 2 0 0 1 -1.78 1.19h-32.77a1.93 1.93 0 0 1 -1.93-1.93l1.91-48.06a2 2 0 0 1 .63-1.44 2 2 0 0 1 1.09-.48h31.07a1.92 1.92 0 0 1 1.93 1.93z" fill="#fff"/><path d="m71.09 81.8v48.06a2.14 2.14 0 0 1 -.16.74 2 2 0 0 1 -1.77 1.18h-32.77a1.92 1.92 0 0 1 -1.93-1.93v-48.05a1.92 1.92 0 0 1 .63-1.43 2 2 0 0 1 1.09-.49h33a1.94 1.94 0 0 1 1.91 1.92z" fill="#d74443"/><path d="m57.19 101.81h15.81a1.07 1.07 0 0 1 1.07 1.07v4.47a1.07 1.07 0 0 1 -1.07 1.07h-15.82a1.07 1.07 0 0 1 -1.07-1.07v-4.47a1.07 1.07 0 0 1 1.08-1.07z" fill="#aa3635"/><path d="m58.14 100.85h14.86a1.07 1.07 0 0 1 1.07 1.07v4.48a1.07 1.07 0 0 1 -1.07 1.07h-14.86a1.07 1.07 0 0 1 -1.07-1.07v-4.48a1.07 1.07 0 0 1 1.07-1.07z" fill="#f86160"/><path d="m62.63 104.35a2.15 2.15 0 1 1 -2.14-2.15 2.14 2.14 0 0 1 2.14 2.15z" fill="#aa3635"/><path d="m62 103.68a1.48 1.48 0 1 1 -1.47-1.48 1.47 1.47 0 0 1 1.47 1.48z" fill="#d74443"/><path d="m59.36 74.89a.41.41 0 0 1 0-.16 3.69 3.69 0 0 1 3.48-2.33 8 8 0 0 1 2.64.66 7.62 7.62 0 0 0 3.42.72c1.39-.25 1.46-1.19 1.47-1.3a.51.51 0 0 1 1 0 2.51 2.51 0 0 1 -2.3 2.31 8.27 8.27 0 0 1 -4-.77 8 8 0 0 0 -2.26-.6 2.69 2.69 0 0 0 -2.54 1.63.51.51 0 0 1 -.65.32.51.51 0 0 1 -.26-.48z" fill="#334067"/><path d="m70.84 71.8a.9.9 0 0 1 -.9-.9.9.9 0 0 1 .9-.9h1.44a.9.9 0 0 1 .9.9.9.9 0 0 1 -.9.9z" fill="#334067"/><path d="m35.14 71.33a.38.38 0 0 1 -.39-.39.38.38 0 0 1 .39-.38h2.58a.38.38 0 0 1 .39.38.38.38 0 0 1 -.38.39z" fill="#142046"/><path d="m37 69.4h21.93a.58.58 0 0 1 .58.58v1.93a.58.58 0 0 1 -.58.58h-21.93a.58.58 0 0 1 -.58-.58v-1.91a.58.58 0 0 1 .58-.6z" fill="#d74443"/><path d="m50.73 69.4h20.38a.58.58 0 0 1 .58.58v1.93a.58.58 0 0 1 -.58.58h-20.38a.58.58 0 0 1 -.58-.58v-1.91a.58.58 0 0 1 .58-.58z" fill="#aa3635"/><path d="m314.68 88.36-17.84-17.84h-8.57l-4.5-6v-.14h-17.4v.24l-4.37 5.85h-8.18l-17.92 17.89 8.18 8.18 3 3 7-6.94v42.26h42.82v-41.86l6.66 6.51z" fill="#898989" opacity=".7"/><path d="m313.79 87.47-17.79-17.84h-43.11l-17.89 17.84 11.17 11.17 6.95-6.94v42.3h42.88v-42l6.66 6.66z" fill="#d74443"/><path d="m274.12 134h-1.6l1.6-62.3z" fill="#aa3635"/><path d="m269.51 79.41-8.51-9.76 4.65-3.91 8.55 5.92z" fill="#f86160"/><path d="m278.94 79.41 8.49-9.76-4.65-3.91-8.56 5.92z" fill="#f86160"/><path d="m282.88 69.82-8.76 1.84-8.64-1.84v-6.38h17.4z" fill="#f86160"/><path d="m269.51 77.11-8.51-7.46 4.65-6.21 8.56 8.22z" fill="#aa3635"/><path d="m278.94 77.11 8.49-7.46-4.65-6.21-8.56 8.22z" fill="#aa3635"/><path d="m277.38 81.49a1.28 1.28 0 0 1 -1.28 1.28 1.28 1.28 0 0 1 0-2.55 1.27 1.27 0 0 1 1.28 1.27z" fill="#7591e9"/><path d="m276.43 81.48.21-.21a.24.24 0 0 0 0-.33.22.22 0 0 0 -.32 0l-.22.22-.21-.22a.24.24 0 0 0 -.33 0 .22.22 0 0 0 0 .32l.22.21-.22.22a.22.22 0 0 0 0 .32.22.22 0 0 0 .32 0l.21-.22.22.22a.22.22 0 0 0 .32 0 .26.26 0 0 0 0-.33z" fill="#fff"/><path d="m277.38 93.75a1.27 1.27 0 0 1 -1.28 1.25 1.27 1.27 0 0 1 -1.27-1.27 1.26 1.26 0 0 1 1.27-1.28 1.27 1.27 0 0 1 1.28 1.27z" fill="#7591e9"/><path d="m276.43 93.75.21-.22a.22.22 0 0 0 0-.32.22.22 0 0 0 -.32 0l-.22.21-.21-.21a.22.22 0 0 0 -.32 0 .22.22 0 0 0 0 .31l.22.22-.22.21a.22.22 0 0 0 0 .32.22.22 0 0 0 .32 0l.21-.22.22.22a.22.22 0 0 0 .32 0 .26.26 0 0 0 0-.33z" fill="#fff"/><path d="m281.5 84.76h10.1v8.11l-5.05 4.06-5.05-4.06z" fill="#f86160"/><path d="m282.29 85.46h8.53v6.78l-4.26 3.43-4.27-3.43z" fill="#aa3635"/><path d="m277.38 106a1.28 1.28 0 1 1 -2.55 0 1.28 1.28 0 0 1 2.55 0z" fill="#7591e9"/><path d="m276.43 106 .21-.21a.24.24 0 0 0 0-.33.22.22 0 0 0 -.32 0l-.22.22-.21-.22a.22.22 0 0 0 -.32 0 .22.22 0 0 0 0 .32l.22.21-.22.22a.22.22 0 0 0 0 .32.23.23 0 0 0 .32 0l.21-.21.22.21a.24.24 0 0 0 .33 0 .24.24 0 0 0 0-.32z" fill="#fff"/><path d="m277.38 118.26a1.28 1.28 0 0 1 -1.28 1.28 1.28 1.28 0 0 1 0-2.55 1.27 1.27 0 0 1 1.28 1.27z" fill="#7591e9"/><path d="m276.43 118.26.21-.21a.24.24 0 0 0 0-.33.22.22 0 0 0 -.32 0l-.22.22-.21-.22a.24.24 0 0 0 -.33 0 .22.22 0 0 0 0 .32l.22.21-.22.22a.22.22 0 0 0 0 .32.22.22 0 0 0 .32 0l.21-.22.22.21a.22.22 0 0 0 .32 0 .24.24 0 0 0 0-.32z" fill="#fff"/><path d="m253.13 91.7v-5.37l-9.94 9.32 3 3z" fill="#aa3635"/><path d="m295.93 92.12v-5.37l9.58 9-2.9 2.9z" fill="#aa3635"/><path d="m56.83 228.09a1.16 1.16 0 0 0 -.34-2.2l7.26-24.71h-4.29l-3.3-1.82-2.78 1.64s0-.08 0-.12v-22.15a8 8 0 1 0 -13.62 5.64 1.68 1.68 0 0 0 2.4-2.37 4.61 4.61 0 1 1 7.84-3.27v22.13a2 2 0 0 0 0 .24l-3-1.74-3.22 1.78h-4.29l7.25 24.71a1.16 1.16 0 0 0 -.34 2.19l-3 4.58 7.37 42.82a2.74 2.74 0 0 0 0 .5c0 .95.38 1.72.84 1.72s.85-.77.85-1.72a2.81 2.81 0 0 0 0-.5l7.37-42.81z" fill="#898989" opacity=".7"/><path d="m50.82 201.65a1.68 1.68 0 0 1 -1.68-1.65v-22.16a4.61 4.61 0 1 0 -7.87 3.26 1.68 1.68 0 0 1 0 2.38 1.68 1.68 0 0 1 -2.38 0 8 8 0 1 1 13.62-5.64v22.16a1.69 1.69 0 0 1 -1.69 1.65z" fill="#fff"/><path d="m51.57 275.08c0 .95-.38 1.72-.84 1.72s-.85-.77-.85-1.72.38-1.72.85-1.72.84.77.84 1.72z" fill="#fff"/><path d="m55.27 226.14 3.63 5.63-7.45 43.31h-1.45l-7.46-43.31 3.63-5.63-7.57-25.86h4.28l3.3-1.81 3.11 1.81 1.44-1.81 1.43 1.81 3.11-1.81 3.3 1.81h4.29z" fill="#d74443"/><path d="m52.16 200.29-.59 25.86 3.7-27.68z" fill="#aa3635"/><path d="m58.57 200.29-5.81 25.06 8.24-25.06z" fill="#aa3635"/><path d="m49.21 200.29.58 25.86-3.7-27.68z" fill="#aa3635"/><path d="m42.79 200.29 5.82 25.06-8.24-25.06z" fill="#aa3635"/><path d="m56.61 226.15a1.18 1.18 0 0 1 -1.19 1.18h-9.42a1.18 1.18 0 0 1 -1.19-1.18 1.19 1.19 0 0 1 1.19-1.15h9.38a1.2 1.2 0 0 1 1.19 1.19z" fill="#fff"/><path d="m47.49 227.33c-.33 0-3 5.1-3 5.1l6.2 42.65z" fill="#aa3635"/><path d="m54.36 227.33c.32 0 3 5.1 3 5.1l-6.19 42.65z" fill="#aa3635"/><path d="m50.73 227.33v47.75l.85-47.75z" fill="#aa3635"/><path d="m197.06 301.29c-1.52-3.61-3.2-7-3.41-11.08a47.09 47.09 0 0 1 .14-4.9c0-.44.06-.88.07-1.31v-3.47a4.6 4.6 0 0 0 -.5-2 2.34 2.34 0 0 0 -.37-.4 2 2 0 0 0 -.33-.24l-.1-.06-.29-.14h-.1l-.32-.1h-.1a2.09 2.09 0 0 0 -.43 0h-15.2v-7.23a13.07 13.07 0 0 0 -26.14 0v7.23h-14.98-.35-.12c-3.64.47-3.52 5.42-3.52 7.3a29.45 29.45 0 0 1 -1.52 10.58 76.88 76.88 0 0 0 -3.72 9c-2.85 9.16 1.07 19.33 5.08 19.33h64.59c3.38-2.68 3.85-17.18 1.62-22.51zm-44.53-31.05a10.52 10.52 0 0 1 21 0v7.23h-21z" fill="#808080" opacity=".7"/><path d="m194.66 322.88h-64.59c-3.36-2.56-3.84-17.05-1.6-22.39 1.52-3.61 3.2-7 3.41-11.08a47.09 47.09 0 0 0 -.14-4.9c0-.44-.05-.88-.07-1.31v-3.47a6.4 6.4 0 0 1 .28-1.55 2.18 2.18 0 0 1 .21-.47 2.89 2.89 0 0 1 .38-.4 2.61 2.61 0 0 1 1.21-.6h.12.36 56.28a2.58 2.58 0 0 1 1.69.64 2.83 2.83 0 0 1 .37.4 4.89 4.89 0 0 1 .5 2v3.47c0 .43 0 .87-.07 1.31a47.17 47.17 0 0 0 -.14 4.9c.21 4 1.89 7.47 3.41 11.09 2.22 5.31 1.73 19.8-1.61 22.36z" fill="#d74443"/><path d="m191.87 277.07-45.81 45.81h-16c-3.36-2.56-3.84-17.05-1.6-22.39 1.52-3.61 3.2-7 3.41-11.08a47.09 47.09 0 0 0 -.14-4.9c0-.44-.05-.88-.07-1.31v-3.47a6.4 6.4 0 0 1 .28-1.55 2.18 2.18 0 0 1 .21-.47 2.89 2.89 0 0 1 .38-.4 2.61 2.61 0 0 1 1.21-.6h.12.36 56.28a2.54 2.54 0 0 1 1.37.36z" fill="#d74443"/><path d="m150.46 285.71a3.77 3.77 0 1 1 3.77-3.76 3.77 3.77 0 0 1 -3.77 3.76zm0-5.82a2.06 2.06 0 1 0 2.06 2.06 2.06 2.06 0 0 0 -2.06-2.06z" fill="#fee969"/><path d="m153.77 291.72a3.3 3.3 0 0 1 -3.3 3.3 3.3 3.3 0 0 1 -3.31-3.3v-6.11a3.31 3.31 0 0 1 3.31-3.31 3.31 3.31 0 0 1 3.3 3.31z" fill="#222b37"/><path d="m174.05 285.71a3.77 3.77 0 1 1 3.77-3.76 3.78 3.78 0 0 1 -3.77 3.76zm0-5.82a2.06 2.06 0 1 0 2.06 2.06 2.06 2.06 0 0 0 -2.06-2.06z" fill="#fee969"/><path d="m177.36 291.72a3.3 3.3 0 0 1 -3.3 3.3 3.3 3.3 0 0 1 -3.31-3.3v-6.11a3.31 3.31 0 0 1 3.31-3.31 3.3 3.3 0 0 1 3.3 3.3z" fill="#222b37"/><path d="m175.31 269.44v11.94h-2.55v-11.94a10.52 10.52 0 0 0 -21 0v11.94h-2.56v-11.94a13.07 13.07 0 1 1 26.14 0z" fill="#222b37"/><path d="m133.75 276.71a2.61 2.61 0 0 0 -1.21.6 3.59 3.59 0 0 0 -.38.4 2.06 2.06 0 0 0 -.21.48 6.24 6.24 0 0 0 -.28 1.54v3.47c0 .44 0 .87.07 1.31a47.17 47.17 0 0 1 .14 4.9c-.21 4-1.89 7.47-3.41 11.09-2.23 5.33-1.75 19.83 1.6 22.39-4 0-7.93-10.17-5.08-19.34a76 76 0 0 1 3.72-8.95 29.48 29.48 0 0 0 1.52-10.6c0-1.87-.12-6.82 3.52-7.29z" fill="#aa3635"/><path d="m184.32 35.27c-.31-.17-1.53.16-3.29.35a18.62 18.62 0 0 0 -7.82-2.62.54.54 0 0 0 -.22 0 25.33 25.33 0 0 0 -2.6.34 19.65 19.65 0 0 1 -5.81-6.52l-.14-.25c-2.21-3.81-8.49-12.26-10.13-14.35s-5.11-5.67-7.57-6.9a11.94 11.94 0 0 0 -4.37 3.6c-1.8-2.07-4.65-4.85-6.74-5.9-3.56 1.48-8 7.38-7.17 11.71a5.75 5.75 0 0 0 .22.84c0 .09.07.18.1.27 1.8 5 2.87 19.6 3.14 27.27v3.16h3.14c0-6 .41-19.94 1.37-23.9-3.5-2.32-6.21-3.67-7.43-6 1.22 2.37 3.93 3.71 7.43 6 .63.42 1.28.87 1.95 1.36 1 .73 2.05 1.56 3.13 2.52.83 6.32 1.35 14.23 1.52 19.2v3.11h3.14c0-3.86.17-11.07.55-16.76a53.75 53.75 0 0 1 3.94 5.76 28.4 28.4 0 0 0 1.85 2.77c.23.3.46.59.7.88t0 0c.11.14.22.27.34.4a1.47 1.47 0 0 1 .1.13 4.36 4.36 0 0 0 .62.67.08.08 0 0 0 0 0 11.78 11.78 0 0 0 3 2.3l.15.07h.15a5.55 5.55 0 0 0 1.59.45c1.48.15 3.24.22 5.13.23h1.88a10.83 10.83 0 0 0 2.18 1.5l.16.07a5.51 5.51 0 0 0 1.78.51c7.86.81 23.68-.61 24.81-1.93a.16.16 0 0 0 .05-.1c0-.08 0-.17.08-.27a1.18 1.18 0 0 0 0-.2.29.29 0 0 0 0-.09.77.77 0 0 0 0-.15 1.35 1.35 0 0 0 0-.28 2.3 2.3 0 0 0 0-.26c.58-2.69-.97-7.55-10.91-8.99z" fill="#808080" opacity=".7"/><path d="m128.07 14.25a6.5 6.5 0 0 0 .22.84l.1.27c1.08 2.68 3.92 4.05 7.65 6.53a44.23 44.23 0 0 1 14.25 15.2 28.4 28.4 0 0 0 1.85 2.77c.22.29.45.59.7.87.35.43.72.85 1.1 1.24l.06.06a11.74 11.74 0 0 0 3 2.29l.15.08a5.86 5.86 0 0 0 1.85.6c7.87.81 23.68-.62 24.81-1.93a.21.21 0 0 0 .06-.1c0-.09.05-.17.07-.27s0-.13.05-.2a.28.28 0 0 0 0-.09.9.9 0 0 0 0-.16 2.51 2.51 0 0 0 0-.27v-.27c.2-2.8-1.35-7.66-11.29-9.1-5.94 6.14-16.39-.71-19.25-7.57-.12-.26-.28-.59-.49-1-.05-.08-.09-.17-.14-.24-2.21-3.81-8.49-12.27-10.13-14.36s-5.12-5.67-7.57-6.9c-3.44 1.46-7.9 7.38-7.05 11.71z" fill="#d74443"/><path d="m128.39 15.36c2.09 5.86 3.21 24.68 3.21 30.42h3.07c0-6 .41-19.93 1.37-23.89-3.74-2.48-6.57-3.89-7.65-6.53z" fill="#d74443"/><path d="m153.08 24c.2.38.37.7.48 1 2.87 6.86 13.31 13.72 19.26 7.58-1.02-.58-12.21 4.42-19.74-8.58z" fill="#4f6ccb"/><path d="m131.53 42.62h3.14v3.16h-3.14z" fill="#404144"/><path d="m153.21 41.18c.21.27.52.55.77.84l.06.06a11.74 11.74 0 0 0 3 2.29l.15.08a9.07 9.07 0 0 0 1.81.55c7.87.81 23.68-.62 24.81-1.93a.21.21 0 0 0 .06-.1c0-.09 0-.17.07-.27a1.42 1.42 0 0 0 0-.2.3.3 0 0 0 0-.1v-.15a2.51 2.51 0 0 0 0-.27 2.45 2.45 0 0 0 0-.27c-.66 1.08-7.29 2.23-14.33 2.61s-14.31-.05-16.4-3.14z" fill="#404144"/><path d="m130.79 23.15c.24 1.82.44 3.83.61 5.82l2.81 2.81c.06-1.69.14-3.41.25-5z" fill="#fefefe" opacity=".25"/><path d="m136.82 14.69c.2 3 .78 5.71 1.17 8.56a44.94 44.94 0 0 1 12.28 13.83 28.54 28.54 0 0 0 1.85 2.78c.22.3.46.59.7.88.11.14.22.27.34.4s.51.55.76.84h.05a11.69 11.69 0 0 0 3 2.29l.15.08a9.36 9.36 0 0 0 1.88.65c7.86.81 23.67-.62 24.8-1.93a.27.27 0 0 0 .06-.1c0-.09 0-.17.07-.27v-.2a.28.28 0 0 0 0-.09.9.9 0 0 0 0-.16 2.51 2.51 0 0 0 0-.27v-.27c.2-2.8-1.35-7.66-11.29-9.1-1-.59-12.2 4.45-19.74-8.54l-.14-.25c-2.21-3.81-8.49-12.26-10.13-14.35a41 41 0 0 0 -3.87-4.14c-1.66 2.45-2.18 6.82-1.94 9.36z" fill="#505261" opacity=".4"/><path d="m139.18 16.55a4.71 4.71 0 0 0 .22.84l.1.27c1.08 2.69 3.92 4.05 7.65 6.53a44.23 44.23 0 0 1 14.25 15.2 28.54 28.54 0 0 0 1.85 2.78c.22.29.46.59.7.88.35.43.72.84 1.1 1.23a.17.17 0 0 0 .06.06 11.52 11.52 0 0 0 3 2.29l.15.08a5.59 5.59 0 0 0 1.78.51c7.87.81 23.68-.62 24.81-1.93a.21.21 0 0 0 .06-.1c0-.09 0-.17.07-.27s0-.13.05-.2a.28.28 0 0 0 0-.09.9.9 0 0 0 0-.16 2.51 2.51 0 0 0 0-.27v-.27c.2-2.8-1.35-7.66-11.29-9.1-5.74 6.17-16.2-.67-19.06-7.53-.12-.26-.28-.59-.49-1l-.14-.24c-2.21-3.81-8.49-12.27-10.13-14.36s-5.11-5.67-7.57-6.9c-3.56 1.52-8.02 7.43-7.17 11.75z" fill="#d74443"/><path d="m139.5 17.66c2.09 5.87 3.21 24.69 3.21 30.43h3.07c0-6 .41-19.94 1.37-23.9-3.74-2.48-6.57-3.84-7.65-6.53z" fill="#d74443"/><path d="m164.19 26.34a10.62 10.62 0 0 1 .48 1c2.87 6.83 13.33 13.66 19.26 7.54-1.02-.59-12.21 4.45-19.74-8.54z" fill="#aa3635"/><path d="m142.64 44.93h3.14v3.16h-3.14z" fill="#404144"/><path d="m164.32 43.48c.21.27.52.55.77.84l.06.06a11.73 11.73 0 0 0 3 2.3l.16.07a9.07 9.07 0 0 0 1.78.51c7.86.81 23.68-.61 24.81-1.93a.19.19 0 0 0 0-.1c0-.08.05-.17.08-.27a1.18 1.18 0 0 0 0-.2.29.29 0 0 0 0-.09.77.77 0 0 0 0-.15 1.45 1.45 0 0 0 0-.28 2.23 2.23 0 0 0 0-.27c-.66 1.08-7.29 2.24-14.33 2.62s-14.24-.01-16.33-3.11z" fill="#404144"/><path d="m141.9 25.45c.24 1.82.44 3.84.61 5.82l2.81 2.81c.06-1.69.15-3.4.25-4.95z" fill="#fefefe" opacity=".25"/><ellipse cx="164.36" cy="195.09" fill="#747474" opacity=".2" rx="65.56" ry="5.62"/><path d="m151.45 192.77c0 3.42-4 3.38-8.86 3.38s-9.2 0-8.83-3.38c.39-3.66 4.4-6.46 8.84-6.19 4.87.29 8.85 2.77 8.85 6.19z" fill="#222b37"/><path d="m170.36 192.77c0 3.42 4 3.38 8.85 3.38s9.2 0 8.84-3.38c-.4-3.66-4.4-6.46-8.85-6.19-4.87.29-8.84 2.77-8.84 6.19z" fill="#222b37"/><path d="m135.7 167.38a8.07 8.07 0 0 1 -8.1 8.05h-.07c-4.5 0-8.49-3.56-8.15-8.05.37-4.82 4.06-8.51 8.16-8.16 4.46.39 8.16 3.66 8.16 8.16z" fill="#222b37"/><path d="m192.6 163.49c0 17.88-12.5 32.17-31.62 32.17s-31.63-14.29-31.63-32.17 13.06-33.43 32.18-33.43 31.07 15.55 31.07 33.43z" fill="#fff" stroke="#222b37" stroke-miterlimit="10" stroke-width="2"/><path d="m161.81 102.73c25.33 0 45.87 16.28 45.87 36.36s-20.54 36.36-45.87 36.36-45.88-16.28-45.88-36.36 20.54-36.36 45.88-36.36z" fill="#fff" stroke="#222b37" stroke-width="2"/><ellipse cx="180.16" cy="136.79" fill="#222b37" rx="9.81" ry="12.44" transform="matrix(.81935221 -.57329046 .57329046 .81935221 -45.88 127.99)"/><ellipse cx="141.45" cy="136.8" fill="#222b37" rx="12.89" ry="10.16" transform="matrix(.57329046 -.81935221 .81935221 .57329046 -51.72 174.28)"/><path d="m201.47 117.55a7.82 7.82 0 0 1 -1 1.54 44.08 44.08 0 0 0 -18.17-13c2.8-3.31 8.25-4.15 13.13-1.77 5.57 2.68 8.28 8.68 6.04 13.23z" fill="#222b37"/><path d="m122.06 117.55a7.82 7.82 0 0 0 1 1.54 44.08 44.08 0 0 1 18.17-13c-2.8-3.31-8.25-4.15-13.13-1.77-5.57 2.68-8.28 8.68-6.04 13.23z" fill="#222b37"/><circle cx="174.46" cy="133.39" fill="#fff" r="2.98"/><circle cx="147.09" cy="133.64" fill="#fff" r="3.22"/><ellipse cx="160.98" cy="144.45" fill="#222b37" rx="5.53" ry="3.22"/><path d="m150 149.55s6.09 6.55 11 0c0 0 5.45 7.21 10.5 0" fill="none" stroke="#222b37" stroke-linecap="round" stroke-miterlimit="10"/><path d="m160.98 149.55v-5.1" fill="none" stroke="#222b37" stroke-miterlimit="10"/><path d="m138.73 164.41a11.07 11.07 0 0 1 -11.1 11h-.1c-6.17 0-11.63-4.87-11.17-11 .5-6.61 5.57-11.67 11.19-11.18 6.15.53 11.18 5 11.18 11.18z" fill="#222b37"/><path d="m203 165.25a11.29 11.29 0 0 1 -11.33 11.26h-.1c-6.3 0-11.86-5-11.39-11.26.51-6.74 5.68-11.9 11.41-11.41 6.29.55 11.41 5.16 11.41 11.41z" fill="#222b37"/></svg>