<svg id="Layer_1" data-name="Layer 1" xmlns="http://www.w3.org/2000/svg" viewBox="0 0 37.8 39.23"><defs><style>.cls-1{opacity:0.7;}.cls-2{fill:#ffce54;}.cls-3{fill:#4fc2e9;}.cls-4{fill:#e6e9ed;}.cls-5{fill:#f5f7fa;}.cls-6{fill:#3bafda;}.cls-7{fill:#f0372f;}</style></defs><title>Untitled-1</title><g id="Group_1148" data-name="Group 1148" class="cls-1"><rect id="Rectangle_274" data-name="Rectangle 274" class="cls-2" x="5.65" y="14.87" width="24.85" height="17.16"/><rect id="Rectangle_275" data-name="Rectangle 275" class="cls-3" x="21.91" y="20.72" width="5.17" height="10.87"/><rect id="Rectangle_276" data-name="Rectangle 276" class="cls-4" x="5.9" y="7.77" width="24.31" height="3.59"/><rect id="Rectangle_277" data-name="Rectangle 277" class="cls-3" x="8.61" y="20.78" width="10.65" height="7.1"/><path id="Path_2280" data-name="Path 2280" class="cls-5" d="M8,20.19v8.28H19.85V20.19Zm10.65,7.1H9.2V21.37h9.47Z"/><path id="Path_2281" data-name="Path 2281" class="cls-5" d="M21,20.19V32h7.1V20.19ZM27,30.84H22.22V21.37H27Z"/><path id="Path_2282" data-name="Path 2282" class="cls-6" d="M17.48,24.33a.56.56,0,0,0-.42.18h0l-1.18,1.18h0a.59.59,0,0,0,.83.84h0l1.19-1.19h0a.59.59,0,0,0,0-.83.56.56,0,0,0-.42-.18Z"/><path id="Path_2283" data-name="Path 2283" class="cls-6" d="M17.9,23a.59.59,0,0,0-.84-.84l-3.55,3.55a.59.59,0,0,0,.84.84Z"/><path id="Path_2284" data-name="Path 2284" class="cls-5" d="M27.08,25.52H21.63a.59.59,0,0,0-.6.59.6.6,0,0,0,.6.59h5.45a.59.59,0,0,0,.59-.59A.58.58,0,0,0,27.08,25.52Z"/><path id="Path_2285" data-name="Path 2285" class="cls-7" d="M28.89,19a3.38,3.38,0,0,0,3.38-3.38,3.08,3.08,0,0,0,0-.53h0l0-.11a.11.11,0,0,0,0-.05l-2-4.81H25.38l.81,7.53.11.14A3.36,3.36,0,0,0,28.89,19Z"/><path id="Path_2286" data-name="Path 2286" class="cls-4" d="M20.51,10.13l.27,7.53a3.39,3.39,0,0,0,4.74.67,3.54,3.54,0,0,0,.67-.67l-.81-7.53Z"/><path id="Path_2287" data-name="Path 2287" class="cls-7" d="M7.32,19a3.38,3.38,0,0,1-3.38-3.38,3.08,3.08,0,0,1,0-.53H4L4,15a.43.43,0,0,0,0-.05l2-4.81h4.87L10,17.66l-.12.14A3.36,3.36,0,0,1,7.32,19Z"/><path id="Path_2288" data-name="Path 2288" class="cls-4" d="M15.7,10.13l-.27,7.53a3.38,3.38,0,0,1-4.73.67,3.32,3.32,0,0,1-.68-.67l.81-7.53Z"/><path id="Path_2289" data-name="Path 2289" class="cls-7" d="M15.64,10.13l-.27,7.53a3.38,3.38,0,0,0,4.73.67,3.32,3.32,0,0,0,.68-.67l-.27-7.53Z"/><path id="Path_2290" data-name="Path 2290" class="cls-7" d="M4,15v0l0,.11H4a3,3,0,0,0,0,.52,3.38,3.38,0,0,0,6,2.18l.11-.15L10.31,15Z"/><path id="Path_2291" data-name="Path 2291" class="cls-5" d="M10.31,15,10,17.66a3.39,3.39,0,0,0,4.74.67,3.54,3.54,0,0,0,.67-.67l.1-2.7Z"/><path id="Path_2292" data-name="Path 2292" class="cls-7" d="M15.47,15l-.1,2.7a3.38,3.38,0,0,0,4.73.67,3.6,3.6,0,0,0,.68-.67l-.1-2.7Z"/><path id="Path_2293" data-name="Path 2293" class="cls-5" d="M20.68,15l.1,2.7a3.39,3.39,0,0,0,4.74.67,3.54,3.54,0,0,0,.67-.67L25.9,15Z"/><path id="Path_2294" data-name="Path 2294" class="cls-7" d="M32.23,15.1l0-.11v0H25.9l.29,2.7.11.14a3.38,3.38,0,0,0,6-2.17,3.08,3.08,0,0,0,0-.53Z"/></g></svg>