<svg id="Layer_1" data-name="Layer 1" xmlns="http://www.w3.org/2000/svg" viewBox="0 0 158.1 43.66"><defs><style>.cls-1{fill:#222b37;}</style></defs><title>Untitled-1</title><g id="Group_1419" data-name="Group 1419"><path id="Path_2713" data-name="Path 2713" class="cls-1" d="M15.56,16.34a9.47,9.47,0,0,0-2.86,6.94,9.78,9.78,0,0,0,9.8,9.8,9.28,9.28,0,0,0,7.24-3.27,1.91,1.91,0,0,1,1.45-.66h0a2,2,0,0,1,1.49,3.22A12.76,12.76,0,0,1,22.5,37a13.21,13.21,0,0,1-9.7-4,13.17,13.17,0,0,1-4-9.68,13.21,13.21,0,0,1,4-9.7,13.21,13.21,0,0,1,9.7-4,12.7,12.7,0,0,1,10.18,4.61,1.95,1.95,0,0,1-1.49,3.21h0a1.93,1.93,0,0,1-1.45-.65,9.31,9.31,0,0,0-7.24-3.25A9.57,9.57,0,0,0,15.56,16.34Z"/><path id="Path_2714" data-name="Path 2714" class="cls-1" d="M36.82,35.48V9.72a1.76,1.76,0,0,1,2-1.49h0a1.77,1.77,0,0,1,1.95,1.49V35.48A1.77,1.77,0,0,1,38.77,37h0A1.76,1.76,0,0,1,36.82,35.48Z"/><path id="Path_2715" data-name="Path 2715" class="cls-1" d="M66.09,13.58a13.22,13.22,0,0,1,4,9.7,13.14,13.14,0,0,1-4,9.67,13.65,13.65,0,0,1-19.37,0,13.14,13.14,0,0,1-4-9.67,13.22,13.22,0,0,1,4-9.7,13.68,13.68,0,0,1,19.37,0ZM63.33,30.22a9.57,9.57,0,0,0,2.86-6.94,9.79,9.79,0,0,0-16.71-6.94,9.47,9.47,0,0,0-2.86,6.94,9.78,9.78,0,0,0,9.8,9.8,9.42,9.42,0,0,0,6.91-2.87Z"/><path id="Path_2716" data-name="Path 2716" class="cls-1" d="M77.4,14.76c-1.28.87-1.93,1.76-1.93,2.72s.65,1.85,1.93,2.71a8.74,8.74,0,0,0,5,1.29,12.72,12.72,0,0,1,7.7,2.3,6.62,6.62,0,0,1,0,11.25,14,14,0,0,1-15.4,0,7.89,7.89,0,0,1-2.47-2.76,2,2,0,0,1,.87-2.65A2,2,0,0,1,74,29.4h0a2,2,0,0,1,1.77,1.1,5,5,0,0,0,1.63,1.62,10.35,10.35,0,0,0,10,0c1.31-.87,1.95-1.76,1.95-2.72s-.64-1.83-1.95-2.69a8.75,8.75,0,0,0-5-1.31,12.68,12.68,0,0,1-7.7-2.3,6.61,6.61,0,0,1,0-11.25,14,14,0,0,1,15.4,0,7.86,7.86,0,0,1,2.46,2.76,2,2,0,0,1-.87,2.65,1.94,1.94,0,0,1-.89.21h0a2,2,0,0,1-1.74-1,4.8,4.8,0,0,0-1.68-1.67,8.68,8.68,0,0,0-5-1.28A8.65,8.65,0,0,0,77.4,14.76Z"/><path id="Path_2717" data-name="Path 2717" class="cls-1" d="M116.94,13.58a13.22,13.22,0,0,1,4,9.7,8.52,8.52,0,0,1-.18,1.75.44.44,0,0,1,0,.2H100.45a2,2,0,0,0-2,1.95,1.88,1.88,0,0,0,.25.95,9.81,9.81,0,0,0,2.3,2.75,9.47,9.47,0,0,0,6.2,2.2,9.26,9.26,0,0,0,7.26-3.27,2,2,0,0,1,1.45-.65h0a2,2,0,0,1,2,1.95,1.91,1.91,0,0,1-.46,1.25A12.73,12.73,0,0,1,107.25,37a13.17,13.17,0,0,1-9.68-4,13.15,13.15,0,0,1-4-9.68,13.21,13.21,0,0,1,4-9.7,13.68,13.68,0,0,1,19.37,0ZM101,15.7a10,10,0,0,0-2.28,2.7,2,2,0,0,0,.75,2.65,1.88,1.88,0,0,0,.95.25h13.59a1.94,1.94,0,0,0,1.69-2.91,9.75,9.75,0,0,0-2.3-2.7,9.32,9.32,0,0,0-6.2-2.22,9.42,9.42,0,0,0-6.19,2.23Z"/><path id="Path_2718" data-name="Path 2718" class="cls-1" d="M122.94,35.48V9.72a1.77,1.77,0,0,1,2-1.49h0a1.76,1.76,0,0,1,2,1.49V35.48a1.76,1.76,0,0,1-2,1.5h0A1.77,1.77,0,0,1,122.94,35.48Z"/><g id="Group_1418" data-name="Group 1418"><path id="Path_2719" data-name="Path 2719" class="cls-1" d="M141.34,20.7l6.13-10.29A1.79,1.79,0,0,1,149,9.63h0c1.25,0,2.07,1.07,1.53,2L140.18,29h-.71L129.1,11.61c-.55-.91.27-2,1.52-2h0a1.76,1.76,0,0,1,1.53.78l6.14,10.29a1.88,1.88,0,0,0,2.63.41A2,2,0,0,0,141.34,20.7Z"/></g><path id="Rectangle_459" data-name="Rectangle 459" class="cls-1" d="M139.82,25.93h0a2,2,0,0,1,2,1.95V35a2,2,0,0,1-2,1.95h0A2,2,0,0,1,137.87,35V27.88A2,2,0,0,1,139.82,25.93Z"/><path id="Rectangle_460" data-name="Rectangle 460" class="cls-1" d="M129.8,9.82h0a2,2,0,0,1,2.66.71l9.12,15.79a2,2,0,0,1-.72,2.66h0a2,2,0,0,1-2.66-.71l-9.12-15.79A1.94,1.94,0,0,1,129.8,9.82Z"/><path id="Rectangle_461" data-name="Rectangle 461" class="cls-1" d="M150.06,9.75h0a2,2,0,0,1,.67,2.67l-9.12,15.23a2,2,0,0,1-2.68.67h0a2,2,0,0,1-.67-2.68l9.12-15.22A2,2,0,0,1,150.06,9.75Z"/></g></svg>