<svg id="Layer_1" data-name="Layer 1" xmlns="http://www.w3.org/2000/svg" viewBox="0 0 37.4 32.92"><defs><style>.cls-1{opacity:0.7;}.cls-2{fill:#455a64;}.cls-3{fill:#ffb033;}.cls-4{fill:#fafafa;}</style></defs><title>Untitled-1</title><g id="Group_1146" data-name="Group 1146" class="cls-1"><g id="Group_1115" data-name="Group 1115"><circle id="Ellipse_36" data-name="Ellipse 36" class="cls-2" cx="24.61" cy="26.48" r="2.56"/><circle id="Ellipse_37" data-name="Ellipse 37" class="cls-2" cx="14.38" cy="26.48" r="2.56"/></g><path id="Path_2295" data-name="Path 2295" class="cls-3" d="M29.09,9.76a.52.52,0,0,0-.38-.17H10.28a.51.51,0,0,0-.51.51s0,.07,0,.1l2.05,10.24a.57.57,0,0,0,.57.41L27.75,18.8a.51.51,0,0,0,.44-.44l1-8.19A.51.51,0,0,0,29.09,9.76Z"/><g id="Group_1116" data-name="Group 1116"><path id="Path_2296" data-name="Path 2296" class="cls-4" d="M14.38,18.8a.52.52,0,0,1-.5-.43l-1-6.14a.52.52,0,0,1,.45-.57.51.51,0,0,1,.56.4l1,6.14a.53.53,0,0,1-.42.59Z"/><path id="Path_2297" data-name="Path 2297" class="cls-4" d="M16.94,18.29a.52.52,0,0,1-.52-.47l-.51-5.63a.51.51,0,0,1,.46-.55h0a.5.5,0,0,1,.56.46h0l.51,5.63a.51.51,0,0,1-.46.56h0Z"/><path id="Path_2298" data-name="Path 2298" class="cls-4" d="M19.5,17.78a.51.51,0,0,1-.52-.51V12.15a.52.52,0,0,1,1,0h0v5.12A.51.51,0,0,1,19.5,17.78Z"/><path id="Path_2299" data-name="Path 2299" class="cls-4" d="M22.05,17.27H22a.52.52,0,0,1-.46-.57h0l.51-4.61a.52.52,0,0,1,.57-.45.5.5,0,0,1,.45.56h0l-.51,4.61A.51.51,0,0,1,22.05,17.27Z"/><path id="Path_2300" data-name="Path 2300" class="cls-4" d="M24.61,16.75a.51.51,0,0,1-.51-.51.49.49,0,0,1,0-.12l1-4.1a.51.51,0,0,1,.61-.39.52.52,0,0,1,.39.62v0l-1,4.09A.51.51,0,0,1,24.61,16.75Z"/></g><path id="Path_2301" data-name="Path 2301" class="cls-2" d="M26.66,22.89H14.85A3.59,3.59,0,0,1,11.33,20L8.84,7.54H6.19a.51.51,0,0,1,0-1H9.26a.51.51,0,0,1,.5.41l2.58,12.88a2.56,2.56,0,0,0,2.51,2.06H26.66a.51.51,0,0,1,.51.51A.51.51,0,0,1,26.66,22.89Z"/></g></svg>