<svg id="Layer_1" data-name="Layer 1" xmlns="http://www.w3.org/2000/svg" viewBox="0 0 50.9 52.2"><defs><style>.cls-1,.cls-2{isolation:isolate;}.cls-2{font-size:12px;font-family:Poppins-Medium, Poppins;font-weight:500;}</style></defs><title>Untitled-1</title><g id="Apps" class="cls-1"><text class="cls-2" transform="translate(9.15 46.13)">Apps</text></g><path id="store" d="M35.22,18.76v8.1a1.91,1.91,0,0,1-1.92,1.91H16.42a1.92,1.92,0,0,1-1.92-1.91v-8.1a.4.4,0,0,1,.37-.41.39.39,0,0,1,.4.37v8.14A1.15,1.15,0,0,0,16.42,28h4.17V21.54a1.93,1.93,0,0,1,1.92-1.92h4.7a1.92,1.92,0,0,1,1.92,1.92v4.94a.38.38,0,0,1-.36.4.39.39,0,0,1-.41-.36v-5a1.14,1.14,0,0,0-1.15-1.15h-4.7a1.15,1.15,0,0,0-1.15,1.15V28h3.12V22a.38.38,0,0,1,.36-.4.39.39,0,0,1,.41.36V28h8a1.14,1.14,0,0,0,1.15-1.15v-8.1a.39.39,0,0,1,.77,0v0ZM15.85,11.9a.38.38,0,0,0,.38.38c20.87,0,19.84,0,20-.08a.41.41,0,0,0,.15-.25c0-.15.16.23-2.52-6a.39.39,0,0,0-.36-.23H16.23a.38.38,0,0,0-.35.23l-2.49,5.76a12.59,12.59,0,0,0,0,2.53,3.17,3.17,0,0,0,6,1.51,3.17,3.17,0,0,0,4.29,1.27,3.23,3.23,0,0,0,1.27-1.27,3.17,3.17,0,0,0,4.29,1.27,3.23,3.23,0,0,0,1.27-1.27,3.17,3.17,0,0,0,5.95-1.51.39.39,0,0,0-.77,0,2.4,2.4,0,1,1-4.8,0,.38.38,0,1,0-.76,0v0a2.4,2.4,0,1,1-4.8,0,.4.4,0,0,0-.41-.37.39.39,0,0,0-.36.37,2.4,2.4,0,0,1-4.8,0h0a.4.4,0,0,0-.37-.41.39.39,0,0,0-.4.37v0a2.4,2.4,0,1,1-4.8,0V12l2.38-5.45H33.24l2.16,5H16.23a.39.39,0,0,0-.38.39Z"/></svg>