<svg id="Layer_1" data-name="Layer 1" xmlns="http://www.w3.org/2000/svg" viewBox="0 0 50.09 52.2"><defs><style>.cls-1,.cls-2{isolation:isolate;}.cls-2{font-size:12px;font-family:Poppins-Medium, Poppins;font-weight:500;}</style></defs><title>Untitled-1</title><g id="Gold" class="cls-1"><text class="cls-2" transform="translate(10.47 46.13)">Gold</text></g><g id="Group_1370" data-name="Group 1370"><path id="Path_2642" data-name="Path 2642" d="M16.24,29.13H32.79V25.27H16.24Zm1.36-2.5H31.44v1.15H17.59Z"/><path id="Path_2643" data-name="Path 2643" d="M37.11,11.3a2.13,2.13,0,0,0-4.25,0,2,2,0,0,0,1.2,1.8L28.8,16.94,24.73,9.76a2.06,2.06,0,0,0,1.91-2,2.13,2.13,0,0,0-4.25,0,2,2,0,0,0,1.9,2l-4.07,7.17L15,13.1a2,2,0,0,0,1.19-1.8,2.13,2.13,0,0,0-4.25,0,2,2,0,0,0,1.65,1.95L16.43,24H32.59l2.87-10.76A2,2,0,0,0,37.11,11.3ZM35,10.65a.71.71,0,0,1,.76.65.77.77,0,0,1-1.52,0,.71.71,0,0,1,.76-.65ZM23.75,7.77a.78.78,0,0,1,.89-.64.79.79,0,0,1,.64.64.78.78,0,0,1-.9.64A.76.76,0,0,1,23.75,7.77ZM14,10.65a.71.71,0,0,1,.76.65.78.78,0,0,1-1.53,0A.72.72,0,0,1,14,10.65Zm17.51,12H17.48l-2-7.51,5.18,3.78,3.86-6.8,3.86,6.8,5.18-3.78Z"/></g></svg>