<svg id="Layer_1" data-name="Layer 1" xmlns="http://www.w3.org/2000/svg" viewBox="0 0 33.24 35.6"><defs><style>.cls-1{opacity:0.7;}.cls-2{fill:#f0372f;}.cls-3{fill:#ffb033;}.cls-4{fill:#fafafa;}.cls-5{fill:#455a64;}</style></defs><title>Untitled-1</title><g id="Group_1106" data-name="Group 1106" class="cls-1"><path id="Path_2252" data-name="Path 2252" class="cls-2" d="M24.57,21.2a6.72,6.72,0,0,0-1.89.3,4.4,4.4,0,0,1-1.14.2,5.14,5.14,0,0,1-1.8-.46l-.21-.1a.51.51,0,0,0-.68.22.49.49,0,0,0,0,.52.68.68,0,0,1,.13.33c0,1.15-1.42,3.85-1.95,4.8a.49.49,0,0,0,.43.75h.26a19.19,19.19,0,0,0,6.53-1.15L26,26a.66.66,0,0,0,.17-.12,4.35,4.35,0,0,0,1-2.67C27.09,22.22,26.22,21.2,24.57,21.2Z"/><path id="Path_2253" data-name="Path 2253" class="cls-3" d="M19.72,21.32a8.12,8.12,0,0,0-2.9-2,11.19,11.19,0,0,1-2.49-1.53c-.89-.9-.75-6.2-.36-9.69a.5.5,0,0,0-.16-.43.52.52,0,0,0-.45-.12,56.81,56.81,0,0,1-5.95,1h-3a.5.5,0,0,0-.51.5h0v0c.17,3.18.33,8.55,0,9.39,0,.13-.09.25-.13.39l0,.13a.51.51,0,0,0,.31.64.47.47,0,0,0,.17,0h.16a10.09,10.09,0,0,1,4,3,5.64,5.64,0,0,1,1.55,3.93.51.51,0,0,0,.41.54l2.49.46a13,13,0,0,0,2.25.2H17.5a.51.51,0,0,0,.44-.26c.21-.37,2.09-3.67,2.09-5.3A1.6,1.6,0,0,0,19.72,21.32Z"/><path id="Path_2254" data-name="Path 2254" class="cls-2" d="M8.85,21.67c-1.52-1.66-3.69-3-4.47-3H4.21a.48.48,0,0,0-.48.35,16.62,16.62,0,0,0-.87,4.19v3a.51.51,0,0,0,.5.5h4a11.86,11.86,0,0,1,2.06.18l.93.17h.1a.51.51,0,0,0,.5-.46A6.67,6.67,0,0,0,8.85,21.67Z"/><g id="Group_1101" data-name="Group 1101"><path id="Path_2255" data-name="Path 2255" class="cls-4" d="M13,11.61H11.44a.51.51,0,0,1,0-1H13a.51.51,0,0,1,0,1Z"/><path id="Path_2256" data-name="Path 2256" class="cls-4" d="M13,13.62H11.44a.5.5,0,0,1-.5-.5.51.51,0,0,1,.5-.51H13a.5.5,0,0,1,.5.51A.5.5,0,0,1,13,13.62Z"/><path id="Path_2257" data-name="Path 2257" class="cls-4" d="M13,15.65H11.44a.51.51,0,0,1-.5-.51.5.5,0,0,1,.5-.5H13a.5.5,0,0,1,.5.5A.5.5,0,0,1,13,15.65Z"/><path id="Path_2258" data-name="Path 2258" class="cls-4" d="M12,18.17a.5.5,0,0,1-.16-1l1.51-.5a.5.5,0,0,1,.36.94l0,0-1.51.5Z"/><path id="Path_2259" data-name="Path 2259" class="cls-4" d="M13,20.19a.49.49,0,0,1-.51-.49.46.46,0,0,1,.15-.37l1-1a.51.51,0,0,1,.72,0,.51.51,0,0,1,0,.71h0l-1,1A.51.51,0,0,1,13,20.19Z"/><path id="Path_2260" data-name="Path 2260" class="cls-4" d="M15,21.7a.49.49,0,0,1-.51-.49.51.51,0,0,1,0-.17l.5-1.51a.5.5,0,1,1,1,.28h0s0,0,0,0l-.5,1.51A.49.49,0,0,1,15,21.7Z"/><path id="Path_2261" data-name="Path 2261" class="cls-4" d="M17,22.71a.49.49,0,0,1-.51-.49.51.51,0,0,1,0-.17l.5-1.51a.51.51,0,0,1,.62-.35.52.52,0,0,1,.35.63h0l0,0-.5,1.51A.47.47,0,0,1,17,22.71Z"/></g><path id="Path_2262" data-name="Path 2262" class="cls-5" d="M26.88,24.83a.51.51,0,0,0-.46-.07l-2.48.9a18.08,18.08,0,0,1-6.18,1.09h-2.7A12.06,12.06,0,0,1,13,26.57L9.58,26a11.34,11.34,0,0,0-2.25-.2h-4a.5.5,0,0,0-.5.5v2a1.52,1.52,0,0,0,1.52,1.51h4a.5.5,0,0,0,.5-.5v-.5h2.82a1.22,1.22,0,0,1,.86.36,2.23,2.23,0,0,0,1.58.65h4.36a18.44,18.44,0,0,0,6.33-1.08A5.93,5.93,0,0,0,27,27.62a.5.5,0,0,0,.14-.35v-2A.46.46,0,0,0,26.88,24.83Z"/></g></svg>