<svg id="Layer_1" data-name="Layer 1" xmlns="http://www.w3.org/2000/svg" viewBox="0 0 58.89 52.2"><defs><style>.cls-1,.cls-2{isolation:isolate;}.cls-2{font-size:12px;font-family:Poppins-Medium, Poppins;font-weight:500;}</style></defs><title>Untitled-1</title><g id="Explore" class="cls-1"><text class="cls-2" transform="translate(8.61 46.13)">Explore</text></g><g id="two-circles-sign-one-black-other-white"><g id="Group_1541" data-name="Group 1541"><path id="Path_2983" data-name="Path 2983" d="M31,10.25a1.79,1.79,0,0,1-1.4,0,10,10,0,1,0,0,17.85,1.84,1.84,0,0,1,1.4,0,9.6,9.6,0,0,0,4.15.93A9.84,9.84,0,1,0,31,10.25ZM32.35,27.1c-.41-.15-.46-.53-.15-.84a10,10,0,0,0,.12-14.08l-.12-.11c-.31-.31-.26-.69.15-.84a8.27,8.27,0,0,1,2.83-.5,8.43,8.43,0,0,1,0,16.86A8.26,8.26,0,0,1,32.35,27.1Z"/></g></g></svg>