<svg id="Layer_1" data-name="Layer 1" xmlns="http://www.w3.org/2000/svg" viewBox="0 0 80.25 92.26"><defs><style>.cls-1{fill:#b0693c;}.cls-1,.cls-10,.cls-11,.cls-13,.cls-2,.cls-3,.cls-6,.cls-7,.cls-8{opacity:0.4;}.cls-1,.cls-10,.cls-11,.cls-12,.cls-13,.cls-2,.cls-5,.cls-6,.cls-7,.cls-8{isolation:isolate;}.cls-2{fill:#b5fcff;}.cls-4{fill:#8c5430;}.cls-10,.cls-5{fill:#685c79;}.cls-5{opacity:0.85;}.cls-6{fill:#594f69;}.cls-7{fill:#d5dfe8;}.cls-8{fill:#ffd659;}.cls-9{fill:#ffbd54;}.cls-11{fill:#ffb033;}.cls-12{fill:#ff2c5c;opacity:0.73;}.cls-13{fill:#e62753;}</style></defs><title>Untitled-1</title><g id="Group_2097" data-name="Group 2097"><path id="Path_2330-2" data-name="Path 2330-2" class="cls-1" d="M72.19,82H4.37V8.9A.6.6,0,0,1,5,8.3H71.59a.6.6,0,0,1,.6.6Z"/><path id="Path_2332" data-name="Path 2332" class="cls-2" d="M36,13.21v49.1a.31.31,0,0,1-.31.31H9.28a.3.3,0,0,1-.3-.31V13.21a.3.3,0,0,1,.3-.31H35.67A.31.31,0,0,1,36,13.21Z"/><g id="Group_1121" data-name="Group 1121" class="cls-3"><path id="Path_2333" data-name="Path 2333" class="cls-4" d="M67.59,13.21v49.1a.31.31,0,0,1-.31.31H40.89a.31.31,0,0,1-.31-.31h0V13.21a.31.31,0,0,1,.31-.31H67.28a.31.31,0,0,1,.31.31Z"/><path id="Path_2334" data-name="Path 2334" class="cls-4" d="M67.59,69.36V81.87h-27V69.36a.61.61,0,0,1,.61-.61H67A.61.61,0,0,1,67.59,69.36Z"/><path id="Path_2335" data-name="Path 2335" class="cls-4" d="M36,69.36V82H9V69.36a.61.61,0,0,1,.61-.61H35.37A.61.61,0,0,1,36,69.36Z"/></g><path id="Path_2336" data-name="Path 2336" class="cls-5" d="M72.68,84.55H3.88a.6.6,0,0,1-.6-.6h0V80.09a.6.6,0,0,1,.6-.6h68.8a.6.6,0,0,1,.6.6h0V84A.59.59,0,0,1,72.68,84.55Z"/><path id="Path_2338" data-name="Path 2338" class="cls-6" d="M49,32.76a1.12,1.12,0,0,1-1.12-1.11h0V27.4a1.12,1.12,0,0,1,2.24,0v4.25A1.12,1.12,0,0,1,49,32.76Z"/><path id="Path_2339" data-name="Path 2339" class="cls-6" d="M55.21,32.76a1.12,1.12,0,0,1-1.12-1.11h0V27.4a1.12,1.12,0,0,1,2.24,0v4.25a1.12,1.12,0,0,1-1.12,1.11Z"/><path id="Path_2340" data-name="Path 2340" class="cls-7" d="M25.55,73H19.1a1.12,1.12,0,0,0,0,2.24h6.45a1.12,1.12,0,0,0,0-2.24Z"/><path id="Path_2341" data-name="Path 2341" class="cls-7" d="M57.31,73H50.86a1.12,1.12,0,0,0,0,2.24h6.45a1.12,1.12,0,0,0,0-2.24Z"/><path id="Path_2342" data-name="Path 2342" class="cls-8" d="M60.53,27.4H47.64a2.3,2.3,0,1,1,0-4.6H60.53a2.3,2.3,0,0,1,0,4.6Z"/><path id="Path_2343" data-name="Path 2343" class="cls-9" d="M60.53,22.8h-4.6a2.3,2.3,0,0,1,0,4.6h4.6a2.3,2.3,0,0,0,0-4.6Z"/><path id="Path_2344" data-name="Path 2344" class="cls-10" d="M40.58,26.28h27v2.24h-27Z"/><path id="Path_2345" data-name="Path 2345" class="cls-11" d="M72,40.23l-4.25,4.62a.6.6,0,0,1-.85,0h0L64.7,42.81a.61.61,0,0,0-1,.45V55a.61.61,0,0,1-.61.61H47.55a.61.61,0,0,1-.61-.61h0V43.26a.61.61,0,0,0-.6-.62.59.59,0,0,0-.42.17l-2.21,2.07a.6.6,0,0,1-.85,0h0L38.6,40.23a.62.62,0,0,1,0-.87l8.14-7.55a.58.58,0,0,1,.41-.17H63.44a.59.59,0,0,1,.42.17L72,39.36A.62.62,0,0,1,72,40.23Z"/><path id="Path_2346" data-name="Path 2346" class="cls-12" d="M65.67,40.23l-4.25,4.62a.58.58,0,0,1-.84,0h0l-2.21-2.07a.6.6,0,0,0-.86,0,.59.59,0,0,0-.17.42V55a.6.6,0,0,1-.6.61H41.19a.61.61,0,0,1-.61-.61h0V43.26a.61.61,0,0,0-.6-.62.59.59,0,0,0-.42.17l-2.22,2.07a.6.6,0,0,1-.85,0h0l-4.24-4.62a.62.62,0,0,1,0-.87l8.14-7.55a.58.58,0,0,1,.41-.17H57.09a.58.58,0,0,1,.41.17l8.13,7.55A.62.62,0,0,1,65.67,40.23Z"/><path id="Path_2347" data-name="Path 2347" class="cls-13" d="M49.45,36.09h-1A4.42,4.42,0,0,1,44,31.67v0h9.82v0A4.42,4.42,0,0,1,49.45,36.09Z"/></g></svg>