<svg id="Layer_1" data-name="Layer 1" xmlns="http://www.w3.org/2000/svg" viewBox="0 0 51.55 52.2"><defs><style>.cls-1{fill:none;stroke:#231f20;stroke-miterlimit:10;}.cls-2,.cls-3{isolation:isolate;}.cls-3{font-size:12px;font-family:Poppins-Medium, Poppins;font-weight:500;}</style></defs><title>Untitled-1</title><path id="Path_2641" data-name="Path 2641" class="cls-1" d="M23.81,27.42V20.5h5.54v6.92a1.38,1.38,0,0,0,1.38,1.38h4.15a1.38,1.38,0,0,0,1.38-1.38V17.73h2.36a.67.67,0,0,0,.68-.68.66.66,0,0,0-.23-.52L27.51,6.12a1.4,1.4,0,0,0-1.86,0L14.09,16.53a.69.69,0,0,0,.45,1.2H16.9v9.69a1.38,1.38,0,0,0,1.38,1.38h4.15A1.38,1.38,0,0,0,23.81,27.42Z"/><g id="Home" class="cls-2"><text class="cls-3" transform="translate(8.98 46.13)">Home</text></g></svg>