<svg id="Layer_1" data-name="Layer 1" xmlns="http://www.w3.org/2000/svg" viewBox="0 0 50.91 52.2"><defs><style>.cls-1,.cls-2{isolation:isolate;}.cls-2{font-size:12px;font-family:Poppins-Medium, Poppins;font-weight:500;}</style></defs><title>Untitled-1</title><g id="Profile" class="cls-1"><text class="cls-2" transform="translate(6.03 46.13)">Profile</text></g><g id="user"><path id="Path_2984" data-name="Path 2984" d="M24.05,18.77a4.75,4.75,0,0,0,3.41-1.41,4.83,4.83,0,0,0,0-6.82,4.82,4.82,0,0,0-6.81,0h0a4.83,4.83,0,0,0,0,6.82A4.71,4.71,0,0,0,24.05,18.77Zm-2.57-7.4a3.65,3.65,0,0,1,5.15,0h0a3.65,3.65,0,0,1,0,5.16,3.65,3.65,0,0,1-5.15,0h0a3.62,3.62,0,0,1,0-5.16Z"/><path id="Path_2985" data-name="Path 2985" d="M32.48,24.51a10.85,10.85,0,0,0-.16-1.26A10.69,10.69,0,0,0,32,22a6.6,6.6,0,0,0-.52-1.19,4.36,4.36,0,0,0-.79-1,3.63,3.63,0,0,0-1.13-.72,4.18,4.18,0,0,0-1.45-.26,1.45,1.45,0,0,0-.78.34l-.81.52a4.76,4.76,0,0,1-1.06.47,4.21,4.21,0,0,1-2.58,0,4.5,4.5,0,0,1-1.05-.47L21,19.13a1.41,1.41,0,0,0-.78-.34,4,4,0,0,0-1.45.27,3.43,3.43,0,0,0-1.13.71,4.64,4.64,0,0,0-.79,1A6.6,6.6,0,0,0,16.35,22,9,9,0,0,0,16,23.25a10.85,10.85,0,0,0-.16,1.26c0,.38,0,.78,0,1.18a3.28,3.28,0,0,0,1,2.51,3.52,3.52,0,0,0,2.54.93H29a3.54,3.54,0,0,0,2.55-.93,3.31,3.31,0,0,0,1-2.51C32.52,25.29,32.51,24.89,32.48,24.51Zm-1.75,2.85A2.41,2.41,0,0,1,29,28H19.36a2.4,2.4,0,0,1-1.73-.6A2.16,2.16,0,0,1,17,25.69c0-.37,0-.74,0-1.1a8.87,8.87,0,0,1,.14-1.14,11.38,11.38,0,0,1,.27-1.12,5.13,5.13,0,0,1,.43-1,3.26,3.26,0,0,1,.58-.76,2.44,2.44,0,0,1,.75-.47,2.67,2.67,0,0,1,.92-.17l.24.14.82.53a5.86,5.86,0,0,0,1.33.59,5.18,5.18,0,0,0,3.3,0,5.79,5.79,0,0,0,1.32-.59l.83-.53.23-.14a2.59,2.59,0,0,1,.92.17,2.48,2.48,0,0,1,.76.47,3.56,3.56,0,0,1,.58.76,5.82,5.82,0,0,1,.42,1,7.6,7.6,0,0,1,.27,1.12,11.12,11.12,0,0,1,.15,1.14h0c0,.36,0,.73,0,1.1A2.2,2.2,0,0,1,30.73,27.36Z"/></g></svg>