<svg id="Layer_1" data-name="Layer 1" xmlns="http://www.w3.org/2000/svg" viewBox="0 0 26.34 28.1"><defs><style>.cls-1{fill:#da3a32;}</style></defs><title>Untitled-1</title><path id="Path_2637" data-name="Path 2637" class="cls-1" d="M21.75,9.13l-1.86,3.52-.5-.28,1.87-3.52Zm-18,0,1.86,3.52.5-.28L4.24,8.85Zm8.88-.66h.24a2.39,2.39,0,0,0,2.06-1.56,8,8,0,0,1-2.18.24,8.09,8.09,0,0,1-2.19-.24A2.4,2.4,0,0,0,12.63,8.47ZM17.72,6.8H15.29a2.7,2.7,0,0,1-2.4,2h-.28a2.7,2.7,0,0,1-2.4-2H7.78L4.51,8.69l1.86,3.52,1.29-.74a.22.22,0,0,1,.16,0,.17.17,0,0,1,.07.14v9.65H17.6V11.61a.16.16,0,0,1,.08-.14.19.19,0,0,1,.15,0l1.3.74L21,8.69Z"/></svg>