<svg id="Layer_1" data-name="Layer 1" xmlns="http://www.w3.org/2000/svg" viewBox="0 0 22.91 24.15"><defs><style>.cls-1{fill:#da3a32;}</style></defs><title>Untitled-1</title><g id="Group_1358" data-name="Group 1358"><path id="Path_2610" data-name="Path 2610" class="cls-1" d="M6.54,12V7.75a.28.28,0,0,1,.56,0V12a1.83,1.83,0,0,0,1.25,1.75l.2.07-.31,6.53a8,8,0,0,0,1.24.37l-.33-6.9.2-.07A1.83,1.83,0,0,0,10.6,12V7.75a.28.28,0,0,1,.56,0h0V12a2.41,2.41,0,0,1-1.44,2.21L10,20.85a8,8,0,0,0,1.3.1,8.64,8.64,0,0,0,2.52-.37V16.39a.28.28,0,0,1,.56,0v4c.22-.08.43-.17.64-.27V7.64c-1.53.51-2.28,5.25-2.41,8.47h.43a.28.28,0,0,1,.28.28.27.27,0,0,1-.28.28h-.72a.29.29,0,0,1-.28-.28h0c0-.95.38-9.34,3.26-9.34a.28.28,0,0,1,.28.28h0V19.83a8.77,8.77,0,1,0-7.91.33L8,14.24A2.42,2.42,0,0,1,6.54,12ZM9.71,7.68a.18.18,0,0,1,.18-.18.19.19,0,0,1,.19.18h0V12.3a.18.18,0,0,1-.19.18.18.18,0,0,1-.18-.18h0Zm-1,0a.18.18,0,0,1,.18-.18A.18.18,0,0,1,9,7.68V12.3a.18.18,0,0,1-.19.18.18.18,0,0,1-.18-.18Zm-1,0a.18.18,0,0,1,.18-.18A.18.18,0,0,1,8,7.68V12.3a.18.18,0,0,1-.19.18.18.18,0,0,1-.18-.18Z"/></g></svg>