<svg id="Layer_1" data-name="Layer 1" xmlns="http://www.w3.org/2000/svg" viewBox="0 0 37.19 35.16"><defs><style>.cls-1{fill:#dadcde;}.cls-2{fill:#eb423f;}.cls-3{fill:#d13330;}.cls-4{fill:#a82a27;}.cls-5{fill:#eba72e;}.cls-6{fill:#e09f2c;}.cls-7{fill:#f7b030;}.cls-8{fill:#e9eef2;}</style></defs><title>Untitled-1</title><g id="online-shopping"><path id="Path_2671" data-name="Path 2671" class="cls-1" d="M19.9,12.9a.48.48,0,0,1-.48-.48V7.6a3.37,3.37,0,1,0-6.74-.11.21.21,0,0,0,0,.11v4.82a.5.5,0,0,1-.51.46.48.48,0,0,1-.46-.46V7.6a4.34,4.34,0,0,1,8.67-.13v5A.49.49,0,0,1,19.9,12.9Z"/><path id="Path_2672" data-name="Path 2672" class="cls-2" d="M20.86,29.75H4.49l1-19.26H19.9Z"/><path id="Path_2673" data-name="Path 2673" class="cls-3" d="M24.71,29.75H20.86l-1-19.26h3.85Z"/><path id="Path_2674" data-name="Path 2674" class="cls-4" d="M22.82,27.34h0a.47.47,0,0,1-.48-.45l-1-16.37v0h1l1,16.34A.48.48,0,0,1,22.82,27.34Z"/><path id="Path_2675" data-name="Path 2675" class="cls-5" d="M32.42,29.75H28.56L28.5,29h0l-.9-11.74h3.85l.89,11.54h0Z"/><path id="Path_2676" data-name="Path 2676" class="cls-6" d="M30.54,27.34h-.05a.49.49,0,0,1-.48-.43v-.17l-.95-9.46v-.05h1L31,26.7v.12A.48.48,0,0,1,30.54,27.34Z"/><path id="Path_2677" data-name="Path 2677" class="cls-6" d="M32.42,29.75h-.58l-1.35-2-1.35,2h-.58L28.5,29h0L30,26.74l.1-.14a.48.48,0,0,1,.67-.13.4.4,0,0,1,.13.13l.07.1,1.38,2.07h0Z"/><path id="Path_2678" data-name="Path 2678" class="cls-7" d="M28.56,29.75H16.05l1-12.52H27.6Z"/><path id="Path_2679" data-name="Path 2679" class="cls-8" d="M22.79,26.38h-1A2.41,2.41,0,0,1,19.42,24V20.12a.48.48,0,0,1,1,0V24a1.45,1.45,0,0,0,1.44,1.45h1A1.45,1.45,0,0,0,24.23,24V20.12a.48.48,0,0,1,.46-.5.47.47,0,0,1,.5.46V24A2.4,2.4,0,0,1,22.79,26.38Z"/><path id="Path_2680" data-name="Path 2680" class="cls-1" d="M8.82,12.42h1v2.89h-1Z"/><path id="Path_2681" data-name="Path 2681" class="cls-8" d="M9.31,12.9a.49.49,0,0,1-.49-.48V7.6a4.34,4.34,0,0,1,8.67-.13v5a.49.49,0,0,1-.5.46.48.48,0,0,1-.46-.46V7.6a3.37,3.37,0,1,0-6.74-.11v4.93A.49.49,0,0,1,9.31,12.9Z"/><path id="Path_2682" data-name="Path 2682" class="cls-7" d="M10.75,19.16H7.86V15.31l1.45-1,1.44,1Z"/></g></svg>