<svg id="Layer_1" data-name="Layer 1" xmlns="http://www.w3.org/2000/svg" viewBox="0 0 32.27 37.05"><defs><style>.cls-1{opacity:0.7;}.cls-2{fill:#ffc431;}.cls-3{fill:#ffd873;}.cls-4{fill:#fb6a83;}.cls-5{fill:#f75b74;}.cls-6{fill:#ffa3b9;}.cls-7{fill:#f24962;}</style></defs><title>Untitled-1</title><g id="Group_1117" data-name="Group 1117" class="cls-1"><g id="Group_1114" data-name="Group 1114"><path id="Path_2271" data-name="Path 2271" class="cls-2" d="M15.29,13.21a8.93,8.93,0,1,0,8.93,8.92h0A8.92,8.92,0,0,0,15.29,13.21Zm0,15.62a6.7,6.7,0,1,1,6.7-6.7h0A6.7,6.7,0,0,1,15.29,28.83Z"/><path id="Path_2272" data-name="Path 2272" class="cls-3" d="M17.2,10.2l1.66,1.67v1.78l-2.23,2.23H14l-2.23-2.23V11.87l1.67-1.67Z"/><path id="Path_2273" data-name="Path 2273" class="cls-2" d="M7.26,8.29A1.79,1.79,0,0,0,5.47,6.51,1.79,1.79,0,0,0,7.26,4.72h0A1.79,1.79,0,0,0,9,6.51H9A1.78,1.78,0,0,0,7.26,8.29Z"/><path id="Path_2274" data-name="Path 2274" class="cls-2" d="M22.44,11.87a1.8,1.8,0,0,0-1.79-1.79,1.79,1.79,0,0,0,1.79-1.79h0a1.78,1.78,0,0,0,1.78,1.79h0A1.79,1.79,0,0,0,22.44,11.87Z"/><path id="Path_2275" data-name="Path 2275" class="cls-4" d="M20.2,7.4l-4.91,5.8L10.38,7.4l2.23-2.23H18Z"/><path id="Path_2276" data-name="Path 2276" class="cls-5" d="M17.52,7.4,16.18,5.17H18L20.2,7.4Z"/><path id="Path_2277" data-name="Path 2277" class="cls-6" d="M13.06,7.4,14.4,5.17H12.61L10.38,7.4Z"/><path id="Path_2278" data-name="Path 2278" class="cls-5" d="M15.29,13.2l2.23-5.8H13.06Z"/><path id="Path_2279" data-name="Path 2279" class="cls-7" d="M17.52,7.4l-2.23,5.8L20.2,7.4Z"/></g></g></svg>