<svg id="Layer_1" data-name="Layer 1" xmlns="http://www.w3.org/2000/svg" viewBox="0 0 39.59 42.14"><defs><style>.cls-1{opacity:0.7;}.cls-2{fill:#9dc6fb;}.cls-3{fill:#ffc250;}.cls-4{fill:#454045;}</style></defs><title>Untitled-1</title><g id="Group_1147" data-name="Group 1147" class="cls-1"><path id="Path_2263" data-name="Path 2263" class="cls-2" d="M4.31,19.83a2,2,0,0,0,1.81,1.75h.23a1.1,1.1,0,0,1,1,1.1v2.19a.87.87,0,0,0,.88.88.86.86,0,0,0,.54-.18,16.27,16.27,0,0,0,3.36-3.27,1.1,1.1,0,0,1,.9-.47q4,0,8-.26a2,2,0,0,0,1.67-1.18,2.19,2.19,0,0,0,.14-.56A49.38,49.38,0,0,0,22.91,9,1.94,1.94,0,0,0,21.1,7.23a106.22,106.22,0,0,0-12-.17c-1,0-2,.1-3,.17A2,2,0,0,0,4.31,9,49.38,49.38,0,0,0,4.31,19.83Z"/><path id="Path_2264" data-name="Path 2264" class="cls-3" d="M35.72,31a2.09,2.09,0,0,1-1.92,1.85h-.25A1.16,1.16,0,0,0,32.47,34v2.32a.94.94,0,0,1-.94.94,1,1,0,0,1-.58-.19,17.43,17.43,0,0,1-3.55-3.47,1.14,1.14,0,0,0-1-.5q-4.26,0-8.52-.28a2.08,2.08,0,0,1-1.77-1.25A2.46,2.46,0,0,1,16,31a53,53,0,0,1,0-11.54,2.08,2.08,0,0,1,1.92-1.84,112.13,112.13,0,0,1,12.7-.18c1.07,0,2.14.1,3.2.18a2.07,2.07,0,0,1,1.92,1.84A53,53,0,0,1,35.72,31Z"/><g id="Group_1102" data-name="Group 1102"><path id="Path_2265" data-name="Path 2265" class="cls-4" d="M23.27,24c0-.83-.41-1.5-.91-1.5s-.9.67-.9,1.5.4,1.5.9,1.5S23.27,24.8,23.27,24Z"/><path id="Path_2266" data-name="Path 2266" class="cls-4" d="M29.34,22.47c-.5,0-.9.67-.9,1.5s.41,1.5.9,1.5.91-.67.91-1.5S29.84,22.47,29.34,22.47Z"/><path id="Path_2267" data-name="Path 2267" class="cls-4" d="M29,26.5a.49.49,0,0,0-.64.26h0a2.73,2.73,0,0,1-5,0,.48.48,0,0,0-.63-.26.49.49,0,0,0-.26.64,3.69,3.69,0,0,0,6.8,0A.49.49,0,0,0,29,26.5Z"/></g></g></svg>